<svg xmlns="http://www.w3.org/2000/svg" viewBox="0 0 767 161" preserveAspectRatio="xMidYMid meet">
<style>
  .ink-text { fill: #ffffff; }
  @media (prefers-color-scheme: light) {
    .ink-text { fill: #000000; }
  }
</style>
<!-- "ink" text -->
<g class="ink-text" stroke="none" transform="translate(0,161) scale(0.1,-0.1)">
  <path d="M110 1403 c0 -49 3 -105 6 -125 l7 -38 121 0 c82 0 126 4 134 12 8 8 12 50 12 125 l0 113 -140 0 -140 0 0 -87z"/>
  <path d="M1829 1203 c0 -148 -2 -362 -3 -476 -1 -114 0 -210 4 -212 4 -3 4 -24 -1 -47 -10 -51 -12 -252 -3 -297 l7 -31 128 0 129 0 0 124 0 124 90 82 c49 45 95 80 101 78 6 -2 82 -93 168 -203 l157 -200 157 -3 c107 -2 157 1 157 8 0 6 -84 115 -187 243 -251 310 -253 313 -253 330 0 9 9 22 20 30 35 25 350 329 350 338 0 5 -73 9 -162 9 l-163 -1 -205 -199 c-113 -110 -209 -198 -215 -197 -6 2 -11 142 -13 385 l-2 382 -130 0 -130 0 -1 -267z"/>
  <path d="M1093 1105 c-64 -17 -120 -45 -161 -80 -47 -39 -55 -33 -64 45 l-3 25 -133 0 -133 0 -1 -475 -1 -475 134 0 134 0 5 285 c3 157 9 294 14 305 19 41 79 106 117 125 21 11 65 23 96 26 108 11 190 -28 232 -111 26 -50 26 -53 31 -340 l5 -290 131 -3 c129 -3 132 -2 138 20 3 13 6 156 6 319 0 270 -2 302 -20 360 -48 150 -126 224 -277 263 -74 19 -180 20 -250 1z"/>
  <path d="M115 1088 c-3 -7 -4 -222 -3 -478 l3 -465 135 0 135 0 0 475 0 475 -133 3 c-100 2 -134 -1 -137 -10z"/>
</g>
<!-- "loom" text -->
<g fill="#14b8a6" stroke="none" transform="translate(0,161) scale(0.1,-0.1)">
  <path d="M3055 1468 c-3 -7 -4 -310 -3 -673 l3 -660 137 -3 c136 -3 138 -2 143 20 3 13 4 316 3 673 l-3 650 -138 3 c-104 2 -139 -1 -142 -10z"/>
  <path d="M3874 1111 c-97 -26 -161 -60 -227 -121 -71 -65 -113 -131 -143 -225 -68 -214 23 -451 221 -574 88 -56 190 -81 318 -80 134 0 215 19 308 71 122 68 204 183 234 323 18 84 19 128 4 214 -29 171 -162 322 -339 382 -93 32 -277 37 -376 10z m302 -249 c88 -45 127 -120 127 -242 0 -130 -44 -207 -145 -250 -74 -32 -194 -26 -261 13 -189 111 -157 431 51 498 49 15 183 5 228 -19z"/>
  <path d="M5140 1123 c-192 -32 -357 -171 -411 -345 -23 -75 -27 -201 -9 -278 42 -180 195 -331 381 -375 83 -19 248 -19 324 0 174 44 311 162 368 315 9 25 22 77 29 116 10 61 9 83 -5 150 -46 211 -185 356 -392 409 -55 14 -221 19 -285 8z m221 -243 c51 -14 118 -76 145 -134 18 -40 24 -68 24 -127 0 -90 -21 -147 -72 -195 -60 -58 -93 -69 -198 -69 -87 0 -99 2 -143 29 -55 33 -100 102 -117 180 -8 39 -7 65 6 123 29 130 118 201 254 202 36 1 81 -4 101 -9z"/>
  <path d="M6420 1116 c-45 -15 -126 -71 -139 -94 -9 -16 -10 -16 -17 2 -4 10 -10 32 -13 50 l-7 31 -134 0 -135 0 0 -485 0 -485 120 -3 c66 -1 130 0 142 3 l22 5 1 297 c1 321 2 332 58 388 69 68 203 72 264 8 50 -52 52 -68 58 -393 l5 -305 120 -3 c66 -1 130 0 143 3 l22 5 0 296 c0 322 2 336 59 391 71 69 209 69 266 1 48 -57 49 -68 55 -388 l5 -305 132 -3 c125 -2 133 -2 143 18 19 35 8 652 -12 711 -43 124 -112 203 -211 241 -51 19 -81 23 -172 23 -104 0 -114 -2 -176 -32 -40 -20 -85 -53 -114 -84 l-48 -51 -35 41 c-73 88 -171 131 -296 131 -39 -1 -87 -7 -106 -14z"/>
</g>
</svg>
