<svg version="1.2" xmlns="http://www.w3.org/2000/svg" viewBox="0 0 250 250" width="250" height="250">
	<defs>
		<linearGradient id="g1" x2="1" gradientUnits="userSpaceOnUse" gradientTransform="matrix(0,82.177,-47.058,0,179.902,105.896)">
			<stop offset="0" stop-color="#ececc5"/>
			<stop offset="1" stop-color="#ececc5" stop-opacity=".35"/>
		</linearGradient>
		<linearGradient id="g2" x2="1" gradientUnits="userSpaceOnUse" gradientTransform="matrix(0,157.315,-69.526,0,147.546,61.446)">
			<stop offset="0" stop-color="#19bca0"/>
			<stop offset="1" stop-color="#19bca0"/>
		</linearGradient>
		<linearGradient id="g3" x2="1" gradientUnits="userSpaceOnUse" gradientTransform="matrix(0,24.119,-24.906,0,46.49,45.627)">
			<stop offset="0" stop-color="#29b0a0"/>
			<stop offset="1" stop-color="#29b0a0"/>
		</linearGradient>
		<linearGradient id="g4" x2="1" gradientUnits="userSpaceOnUse" gradientTransform="matrix(0,12.935,-10.419,0,52.302,50.838)">
			<stop offset="0" stop-color="#29b0a0"/>
			<stop offset="1" stop-color="#29b0a0"/>
		</linearGradient>
		<linearGradient id="g5" x2="1" gradientUnits="userSpaceOnUse" gradientTransform="matrix(0,58.51,-38.65,0,64.103,68.606)">
			<stop offset="0" stop-color="#19bca0"/>
			<stop offset="1" stop-color="#19bca0"/>
		</linearGradient>
		<linearGradient id="g6" x2="1" gradientUnits="userSpaceOnUse" gradientTransform="matrix(0,30.529,-25.409,0,68.496,66.717)">
			<stop offset="0" stop-color="#19bca0"/>
			<stop offset="1" stop-color="#19bca0"/>
		</linearGradient>
		<linearGradient id="g7" x2="1" gradientUnits="userSpaceOnUse" gradientTransform="matrix(0,93.85,-68.711,0,104.896,31.106)">
			<stop offset="0" stop-color="#19bca0"/>
			<stop offset="1" stop-color="#19bca0"/>
		</linearGradient>
		<linearGradient id="g8" x2="1" gradientUnits="userSpaceOnUse" gradientTransform="matrix(0,31.566,-25.71,0,172.821,18.49)">
			<stop offset="0" stop-color="#29b0a0"/>
			<stop offset="1" stop-color="#226299"/>
		</linearGradient>
		<linearGradient id="g9" x2="1" gradientUnits="userSpaceOnUse" gradientTransform="matrix(0,22.423,-17.444,0,199.922,65.717)">
			<stop offset="0" stop-color="#29b0a0"/>
			<stop offset="1" stop-color="#226299"/>
		</linearGradient>
		<linearGradient id="g10" x2="1" gradientUnits="userSpaceOnUse" gradientTransform="matrix(0,20.886,-13.732,0,181.862,53.36)">
			<stop offset="0" stop-color="#29b0a0"/>
			<stop offset="1" stop-color="#29b0a0"/>
		</linearGradient>
		<linearGradient id="g11" x2="1" gradientUnits="userSpaceOnUse" gradientTransform="matrix(0,8.577,-7.204,0,187.911,47.702)">
			<stop offset="0" stop-color="#29b0a0"/>
			<stop offset="1" stop-color="#29b0a0"/>
		</linearGradient>
		<linearGradient id="g12" x2="1" gradientUnits="userSpaceOnUse" gradientTransform="matrix(0,10.556,-10.637,0,191.904,53.277)">
			<stop offset="0" stop-color="#29b0a0"/>
			<stop offset="1" stop-color="#29b0a0"/>
		</linearGradient>
		<linearGradient id="g13" x2="1" gradientUnits="userSpaceOnUse" gradientTransform="matrix(0,8.577,-9.105,0,194.096,58.514)">
			<stop offset="0" stop-color="#29b0a0"/>
			<stop offset="1" stop-color="#29b0a0"/>
		</linearGradient>
		<linearGradient id="g14" x2="1" gradientUnits="userSpaceOnUse" gradientTransform="matrix(0,7.534,-7.438,0,189.791,50.724)">
			<stop offset="0" stop-color="#29b0a0"/>
			<stop offset="1" stop-color="#29b0a0"/>
		</linearGradient>
		<linearGradient id="g15" x2="1" gradientUnits="userSpaceOnUse" gradientTransform="matrix(0,37.105,-31.958,0,74.422,156.961)">
			<stop offset="0" stop-color="#19bca0"/>
			<stop offset="1" stop-color="#19bca0"/>
		</linearGradient>
	</defs>
	<style>
		.s0 { fill: #00525a } 
		.s1 { fill: #ececc5 } 
		.s2 { fill: url(#g1) } 
		.s3 { fill: #198080 } 
		.s4 { fill: url(#g2) } 
		.s5 { fill: url(#g3);stroke: #00525a;stroke-miterlimit:10;stroke-width: 2.5 } 
		.s6 { fill: none;stroke: #00525a;stroke-miterlimit:10;stroke-width: 2.5 } 
		.s7 { fill: url(#g4);stroke: #00525a;stroke-miterlimit:10;stroke-width: 2.5 } 
		.s8 { fill: url(#g5) } 
		.s9 { fill: url(#g6) } 
		.s10 { fill: #235d6b;stroke: #00525a;stroke-miterlimit:10;stroke-width: 3 } 
		.s11 { fill: url(#g7) } 
		.s12 { fill: #b9c4ac } 
		.s13 { fill: #29b0a0 } 
		.s14 { fill: #d0e6e2 } 
		.s15 { fill: #ececc5;stroke: #00525a;stroke-miterlimit:10;stroke-width: 2.5 } 
		.s16 { fill: url(#g8);stroke: #00525a;stroke-miterlimit:10;stroke-width: 2.5 } 
		.s17 { fill: #f2f0d1;stroke: #00525a;stroke-miterlimit:10;stroke-width: 2.5 } 
		.s18 { fill: url(#g9);stroke: #00525a;stroke-miterlimit:10;stroke-width: 2.5 } 
		.s19 { fill: url(#g10);stroke: #00525a;stroke-miterlimit:10;stroke-width: 2.5 } 
		.s20 { fill: url(#g11);stroke: #00525a;stroke-miterlimit:10;stroke-width: 2.5 } 
		.s21 { fill: url(#g12);stroke: #00525a;stroke-miterlimit:10;stroke-width: 2.5 } 
		.s22 { fill: url(#g13);stroke: #00525a;stroke-miterlimit:10;stroke-width: 2.5 } 
		.s23 { fill: url(#g14);stroke: #00525a;stroke-miterlimit:10;stroke-width: 2.5 } 
		.s24 { fill: url(#g15) } 
	</style>
	<g id="Layer 1">
		<path class="s0" d="m149.7 226.41c-2.82-5.52-3.97-6.66-3.97-6.66 9.5-6.4 11.95-16.44 11.72-22.56 19.68 1.29 30.37-10.07 34.66-18.4 5.5-10.8 5.68-20.81 4.5-31.66-0.99-9.32 1.27-15.17 7.87-22.22 5.25-5.7 5.43-10.26 3.17-15.79-2.74-6.71-10.04-7.14-15.59-6.38-9.97 1.37-19.81 12.17-22.84 23.34-2.87 10.63-1.25 20.88 0.26 29.87 1.51 9.54-2.43 22.84-14.47 23.59-5.95-11.96-8.4-26.89-7.32-48.93l24.3-25.8 0.79 0.27c6.14-7.92 12-18.64 16.06-27.47l1.79-1.29 9.28 11.59 14.01 11.5c2.09 1.6 2.44-0.18 1.83-2.25l-4.84-15.45-10.13-15.99c2.01-2.34 0.93-7.37-1.72-8.74-0.53-3.27-2.14-6.02-3.93-6.19-1.26-3.41-4.04-5.84-7.4-5.08v-1.46c1.26-0.53 1.35-2.51 0.18-4.49l-15-24.13c-1.79-2.67-3.8-2.41-5.15-2.32l-3.69 0.17-4.93-6.3c-2.17-2.84-7.18-0.86-8.08 2.89-0.8 3.41 3.15 6.59 3.5 7.7l-0.53 1.37 1.08 3.5 20.62 29.44c-3.86 3.09-4.57 8.79-2.95 13.17-6.32 9.72-13 16.81-21 21.84 0.44-3.98 0.18-6.05-4-16.94 10.73-12.14 9.31-26.98 3.91-40.33-0.98-2.55-2.86-1.18-3.75-0.56-9.02 5.35-13.3 9.1-16.66 13.48-7.3-3.86-13.16-4.03-17.76-4.03-5.5 0-10.81 0.35-16.4 3.11-3.27-4.8-8.95-9.69-15.18-13.8-1.71-1.19-3.32-0.57-4.31 1.71-6.85 14.48-5.59 25.98 1.08 35.78-0.9 3.17-1.7 5.92-2.96 7.71-1.62 2.55-2.69 5.73-2.87 9.01-5.01-3.51-9.2-8.94-12.8-15.61 3.86-3.98 4.3-13.61-1.93-16.54-1.44-4.64-3.53-8.05-8.04-7.96-3.03 0-4.29 1.55-5.46 2.65-3.69-0.44-5.77 1.35-7.29 4-4.19 0.96-5.71 5.34-5.18 8.98 0.99 6.48 4.26 10.59 9.84 14.33 3.51 9.54 8.69 21.68 13.11 30.58l2.35 2.42 0.53 0.18c5.25 8.15 12.9 16.89 20.07 24.55-2.35 8.15-3.61 15.15-4.22 22.93-11.38-0.53-18.37 7.3-17.39 21.47-3.36-0.96-8.2-1.4-11.31 0.67-3.69 2.34-6.87 9.05-3.69 13.03 2.56 3.36 11.38 9.1 15.97 12.51 5.41 4.11 9.59 7.75 16.27 7.75 6.5 0 6.95-6.56 7.56-9.74 0.89-4.38 4.99-4.64 8.76-4.47 11.95 0.62 23.14 5.09 32.64 12.76-2.55 2.34-2.46 8.73 0.09 12.48 3.95 5.93 7.72 11.77 8.98 17.03 1.44 3.74 6.04 8.12 11.71 8.77 6.86 0 9.81-9.92 6.25-18.59z"/>
		<path class="s1" d="m154.65 184.66c13.58 0.62 22.13-14.23 20.13-29.59-2-15.36-3.87-26.25 5.14-40.25 5.76-8.75 14.21-9.85 17.79-8.92 6.77 1.88 7.46 8.36 1.43 14.11-9.02 8.65-10.37 16.7-9.75 30.13 0.53 11.58-3.24 23.98-12.74 32.63-6.23 5.04-11.73 6.5-20.09 5.4z"/>
		<path class="s2" d="m156.82 187.38c13.17 0.53 20.56-8.67 22.27-25.75 0.7-7.27-3.07-18.76-1.71-28.89 1.44-11.16 6.54-23.35 17.36-26.19 5.34-1.46 9.2 1.72 8.94 5.37-0.35 4.71-5.37 7.04-9.46 12.66-6.5 9.08-5.15 18.8-5.15 25.6 0 11.96-3.85 22.58-11.85 31.5-5.59 5.18-12.09 6.73-20.09 6.29z"/>
		<path class="s3" d="m152.76 182.91c11.06 0 17.83-10.1 16.48-25.65-1.08-12.75-3.52-20.9 0.99-34.16 4.42-11.96 13.52-19.16 22.54-19.16l2.17 0.43c-8.46 0.88-16.2 10.8-18.75 22.75-2.26 10.37 0.43 20.01 1.05 27.94 0.89 11.96-5.25 28.78-20.11 30.06z"/>
		<path class="s4" d="m140.27 218.29c7.91-1.55 13.49-10.56 13.49-21.45 0-10.89-4.93-22.47-7.01-32.02-2.09-9.54-5.64-28.46-5.38-37.02 0.18-5.75 3.29-9.86 8.04-12.28 13.75-7.08 26.87-22.71 35.7-42.49l-3.36-11.58-6.23 1.63c-7.91 13.15-18.46 24.04-28.68 29.39l-17.89 14.85-1.17 2.93c-2.17 10.89-0.46 24.8 4.14 42.87 2.87 13.35-2.99 30.63-16.3 33.06 7.3 4.2 13.24 13.56 17.43 18.91 3.86 4.38 9.62 5 13.9 3.12 3.86-1.55 5.86-9.12 4.15-18.67 2.78 10.13 1.26 20.59-7.19 26.12l-8.82 2.45c-0.99 0.82 2.78 0.65 5.18 0.18z"/>
		<path class="s5" d="m55.84 51.05c-3.12-0.84-3.74-5.87-6.68-5.34-2.69 0.44-2.34 3.1-3.42 3.45-2.08-0.75-4.63-1.01-5.98 1.45-1.52 2.93-4.45 1.56-4.45 6.02 0 4.38 3.11 10.69 8.86 13.12l1.9-0.53 10.99-4.06c3.55-2.65 5.16-11.54-1.22-14.11z"/>
		<path class="s6" d="m36.66 53.37m9.93 3.01c0 0-5.47 9.98-7.27-5.59"/>
		<path class="s6" d="m42.69 49.16l4.28 8.67c0 0 6.23 0.43 0.17-9.68"/>
		<path class="s7" d="m49.69 63.66c1.95 0.32-3.31 0.11-2.51-3.05 0.53-2.25 1.79-3.89 4.43-3.63l-3.01-6.14 1.77 3.1c2.55-0.93 5.91-1.77 6.9 1.73 1.35 4.94-3.14 7.56-7.09 8.09"/>
		<path class="s8" d="m44.99 68.61c8.46 17.53 12.97 31.22 27.83 43.4l10.82 8.15-2.17 6.96c-10.73-10.04-20.23-22.4-24.26-29.11-4.93-8.05-9.3-19.4-12.22-29.4z"/>
		<path class="s9" d="m56.21 66.72c5.95 10.89 11.11 18.29 19.02 21.37l5.5 4.38 0.89 4.78c-10.45-5.52-19.86-16.64-25.41-30.53z"/>
		<path class="s10" d="m80.64 31.11c-5.86 8.82-8.51 22.26-0.68 33.84l2.55 2.43 13.75-22.91c-3.77-5.03-9.02-9.96-15.62-13.36z"/>
		<path class="s11" d="m149.42 32.04c-8.46 3.98-14.96 9.91-18.41 14.94-7.3-4.46-22.16-6.52-34.75-1.58-3.77-4.47-7.54-8.45-13.77-12.28l5.59 15.7-6.5 17.54-2.17 9.54-1.52 7.93 2.35 9.54 13.03 12.79-3.12 16.56-5.59 30.02 1.17 7.39-5.01-5.11 2.44-19.01 1.45-15.99-3.55 4.94c-6.5-7.57-15.14-16.78-21-26.91l3.03 2.16c7.3 5.84 11.9 9.71 16.18 11-6.59-6.49-18.25-16.62-22.11-26.16l-1.52-5.03 3.86 5.03c4.18 4.71 8.46 8.88 13.39 10.52l1.17-8.56c0.26-3.75 1.16-8.13 3.61-11.54 1.35-2.16 1.61-5.43 2.97-8.45 1.79-4.29 4.34-9.71 6.89-11.87 2.26-1.88 0.64-9.03-4.86-20.6 4.6 2.66 9.77 8.59 12.5 13.06 9.02-4.47 19.84-5.75 36.01 0 3.55-4.83 9.31-10.58 18.24-15.57z"/>
		<path class="s10" d="m149.78 32.66c5.85 9.46 5.23 24.82-3.22 33.79l-3.12-0.35-4.38-12.18 3.56-15.9z"/>
		<path class="s0" d="m146.56 36.07c-4.93 4.84-8.48 11-9.1 18.84l5.5-2.43-3.55 6.4 3.55 8.55c0.35-5.84 3.13-14.33 5.21-20.18 0.99-3.18 0.55-7.82-1.61-11.18z"/>
		<path class="s0" d="m81.84 34.51c3.56 5.17 5.64 11.24 4.38 15.62l-2.55 0.53 1.26 2.26-2.55 7.19c-3.27-5.85-5.44-16.12-0.54-25.6z"/>
		<path class="s1" d="m137.28 57.48c-3.04-3.26-10.34-4.47-14.85 0.56-6.67 7.38-7.29 17.42-8.28 22.94h-10.13c0.62-7.38 0.09-20.22-5.41-25.25-3.86-2.72-8.94-1.79-11.58 1.75-3.86 5.03-5.48 11.63-5.74 17.15-4.18 2.43-5.26 6.9-3.57 12.98 2.35 8.65 10.26 14.5 19.76 19.44l-4.93 0.96c7.3 3.41 12.47 8.85 22.14 8.1 7.3-0.62 12.56-5 16.2-8.1l-5.5-0.7c9.5-3.5 21.36-11.14 21.98-19.7 0.35-4.94-2.1-7.37-6.19-9 0.71-5.85 0.71-16.43-3.9-21.13z"/>
		<path class="s12" d="m145.36 82.15c1.71 4.8-1.47 10.96-8.77 16.4-7.91 6.07-16.45 7.7-23.04 7.7l13.84-5.52c9.59-4.47 16.67-10.54 17.97-18.58z"/>
		<path class="s0" d="m110.96 79.7c-4.18 0-6.08 0-6.08 3.05 0 2.43 2.83 5.93 5.7 5.76 3.13-0.17 5.03-3.8 5.03-5.84 0-2.43-1.71-2.97-4.65-2.97z"/>
		<path class="s0" d="m100.01 86.6c-0.89 0.44-0.98 1.82-0.27 2.83 1.17 1.7 2.43 1.62 3.69 2.13 1.62 0.71 1.36 11.6 7.22 11.6 5.58 0 7.48-10.45 9.93-13.73 1.17-1.65 1.08-2.74-0.09-2.83-1.35-0.08-1 3.09-5.51 3.09-3.86 0-5.47-2.54-6.55-2.54-1.35 0-1.26 2.16-3.71 2.16-2.55 0-2.99-3.32-4.71-2.71z"/>
		<path class="s13" d="m106.27 95.31l2.45-0.7 4.37-0.35 2.94 0.35c-1.08 3.04-2.98 5.51-5.53 5.51-2.55 0-3.72-2.47-4.23-4.81z"/>
		<path class="s0" d="m129.04 64.44c-6.77 0-8.29 7.57-8.29 13.09 0 3.63 4.37 3.72 7.93 3.55 5.07-0.35 7.43-3.38 7.43-7.12 0-4.55-2.27-9.52-7.07-9.52z"/>
		<path class="s0" d="m94.66 63.16c-5.76 0.62-7.93 6.06-7.58 11.09 0.35 4.46 4.95 6.01 8.13 6.01 3.55 0 6.82-1.55 6.82-5.14 0-5.03-1.35-12.52-7.37-11.96z"/>
		<path class="s14" d="m95.91 67.13c-2.17 0-2.7 1.46-2.7 2.39 0 1.46 0.9 2.39 2.42 2.39 1.62 0 2.51-1.19 2.51-2.48 0-1.19-0.98-2.3-2.23-2.3z"/>
		<path class="s14" d="m130.56 67.66c-2.17 0-2.7 1.46-2.7 2.39 0 1.46 1.08 2.39 2.52 2.39 1.62 0 2.51-1.19 2.51-2.48 0-1.19-1.07-2.3-2.33-2.3z"/>
		<path class="s15" d="m154.21 10.16l2.17-1.29c0.99-0.62 2.06 0.14 2.5 0.85l2.26 3.74-3.86 3.51-3.86-4.47c-1.07-1.37-0.27-1.99 0.79-2.34z"/>
		<path class="s6" d="m157.67 20.28l4.37-5.03 6.5-0.17 18.43 28.47-2.94 2.42z"/>
		<path class="s16" d="m160.22 24.15l5.95-5.03 19.25 28.4-3.86 2.54z"/>
		<path class="s17" d="m158.05 17.82l3.55-3.5 4.42 2.84-5.86 6.07z"/>
		<path class="s18" d="m192.38 68.16l6.23-1.88 10.13 16.65-5.58 4.38z"/>
		<path class="s17" d="m203.11 87.38l5.5-4.37 4.42 12.92z"/>
		<path class="s19" d="m178.62 53.62c-3.55 0.53-4.35 5.47-3 10.99l1.35 1.29c2.26 1.19 3.34 3.85 3.34 6.01l4.93 2.34 3.55-4.94-0.62-5.44-4.09-7.06 2.84-1.1c-0.53-2.75-4.19-2.7-8.3-2.09z"/>
		<path class="s20" d="m187.56 48.72l-2.55 3.41c-1.07 1.63-0.27 4.15 2.08 4.15l4.42-6.07c0.62-1.8-2.12-3.35-3.95-1.49z"/>
		<path class="s21" d="m191.74 53.54l-4.51 5.93c-1.26 1.88 0.63 4.81 2.89 4.28l6.5-4.93c1.79-1.55 0.44-6.48-4.88-5.28z"/>
		<path class="s22" d="m196.02 58.57l-4.93 4.38c-1.88 1.71 0 4.55 2.83 4.02l3.27-1.55c2.94-1.46 3.2-7.4-1.17-6.85z"/>
		<path id="Layer copy" class="s23" d="m189.56 51.72l-2.55 3.41c-1.07 1.63-1.09 3.13 1.26 3.13l5.24-5.05c0.62-1.8-2.12-3.35-3.95-1.49z"/>
		<path class="s13" d="m51.01 181.87c0.26-3.08 3.2-4.86 7.3-2.7 3.86 1.98 7.72 5.61 10.07 8.79l-1.62-0.84-6.23-4.46c-2.65-1.88-7.11-3.95-9.52-0.79z"/>
		<path class="s24" d="m80.73 157.56c-7.3-1.55-18.65 0.61-19.45 12.57l0.09 5.93 7.3 8.56-0.62 2.42 5.86 6.49 1.52-6.49c1.52-7.57 6.78-9.99 12.28-9.99l4.93-0.99c-6.5-5.93-7.03-13.5-6.98-17.89z"/>
		<path class="s12" d="m92.48 175.98c4.93 6.49 10.79 10.03 20.93 9.59l3.86-0.62-11.95-7.04c-3.55-1.88-7.91-2.63-12.84-1.93z"/>
	</g>
</svg>