<svg version="1.2" xmlns="http://www.w3.org/2000/svg" viewBox="0 0 200 200" width="250" height="250">
	<style>
		.s0 { fill: #005a5f } 
		.s1 { fill: #20b298;stroke: #005a5f;stroke-linecap: round;stroke-linejoin: round;stroke-width: 1.5 } 
		.s2 { fill: #f1f1cb;stroke: #20b298;stroke-linecap: round;stroke-linejoin: round;stroke-width: 1.5 } 
		.s3 { fill: #20b298;stroke: #005a5f;stroke-linecap: round;stroke-linejoin: round;stroke-width: 2.5 } 
		.s4 { fill: #296972;stroke: #005a5f;stroke-linecap: round;stroke-linejoin: round;stroke-width: 2.5 } 
		.s5 { fill: #f1f1cb } 
		.s6 { fill: none;stroke: #005a5f;stroke-linecap: round;stroke-linejoin: round;stroke-width: 2.5 } 
		.s7 { fill: #005a5f;stroke: #005a5f;stroke-linecap: round;stroke-linejoin: round;stroke-width: 2 } 
		.s8 { fill: none;stroke: #005a5f;stroke-linecap: round;stroke-linejoin: round;stroke-width: 2 } 
	</style>
	<g id="Layer 1">
		<path class="s0" d="m68.47 169.68c-13.35-0.27-23.31-6.97-29.26-19.26-6.29-13.03-3.4-23.79-0.49-36.8 2.04-8.99-0.66-14.73-7.11-20.42-7.36-6.55-6.39-16.26 1.3-21.03 5.08-2.76 11.27-2.75 17.1 0.23 10.86 5.29 16.3 16.92 16.05 31.32-0.17 9.89-3.37 18.26-5.64 27.44-1.08 4.55-1.16 8.77-0.3 13.47 0.75-14.41 8.19-29 19.25-39.52-6.11-4.37-8.26-10.6-6.06-18.04 0.6-1.8 0.21-4.84 0.41-7.9-8.94-9.02-11.31-17.48-8.24-32.65 0.33-1.46 1.85-1.7 2.93-0.99 6.71 4.42 11.7 4.38 17.05 9.77 7.68-5.09 16.25-6.73 26.72-5.39 2.83-6.67 6.73-10.2 10.81-15.45 1-1.12 2.68-0.71 3.79 1.01 5.38 8.34 7.04 15.46 5.53 23.67 5.07-1.43 10.04-0.75 14.76 5.64 7.84 10.68 11.12 23.02 9.34 31.5-2.07 9.2-12.25 18.4-22.59 25.03-0.23 8.31 2.89 18.68 6.85 30.6 4.76 12.8 4.95 23.87-0.29 31.24 5.79 1.64 8.73 4.8 8.83 10.45 0.01 1.51-0.97 2.31-3.12 2.29-6.21-0.07-12.8 0.08-18.98-0.49-3.23-0.32-4.59-1.55-5.49-5.81-1.26-6.13-8.26-9.18-17.01-9.11-7.67 0.38-13.53 3.95-14.85 9.84-0.84 3.89-1.85 4.95-5.35 5.17-5.93 0.43-11.92 0.38-18.29 0.17-1.88-0.07-2.86-0.48-2.85-1.84 0.06-5.94 3.34-9.36 9.02-10.6-2.6-3.3-3.86-7.41-3.82-13.54z"/>
		<path class="s1" d="m68.55 165.33c-12.06 0.28-21.41-7.05-26.39-18.17-5.4-11.37-3.1-21.9 0.16-34.92 2.63-10.36-1.53-18.28-8.34-22.95-5.85-3.58-5.27-12.13 1.78-14.23 9.15-2.6 18.93 4.72 23.35 15.95 4.6 11.66 2.07 23.2-2.25 36.76-3.75 11.55-3.65 22.67 6 29.95 2.08 1.39 4.25 1.39 6.25 0.42z"/>
		<path class="s2" d="m61.31 160.07c-10.03-2.9-16.9-14.62-15.92-30.85 0.65-11.13 5.33-24.91-1.83-35.03-2.88-4-6.29-5.22-9.58-7.23-4.86-2.85-3.91-10.68 2.93-11.93 10.25-1.95 18.97 8.65 20.91 20.74 1.89 10.91-0.64 19.72-3.98 31.02-3.61 12.12-2.4 26.2 7.47 33.28z"/>
		<path class="s3" d="m83.86 105.06c-10.57 9.33-19.77 24.68-19.97 42.13-0.08 4.6 0.6 8.19 3.01 8.12 2.22-0.07 2.82-2.42 3.29-4.59 0.33-1.15 1.73-0.93 2.02-0.1 0.61 1.84 1.02 3.34-0.09 6.3-4.2 10.39-3.19 21.86 4.39 28.8 1.2 1.06 1.28 1.99-0.43 1.75-5.19-0.73-8.47 1.41-8.61 4.47 5.69 0.15 11.75-0.13 16.67-0.43 1.49-0.12 1.68-1.52 2.17-3.52 2.63-8.18 10.77-12.11 21.36-12.08 8.94 0.35 15.39 4.25 17.58 12 0.71 2.8 1.07 3.25 3.43 3.32 5.53 0.19 10.04 0.14 16.77 0.78-0.44-4.05-3.54-5.58-10.38-5.4-1.43 0.05-2.01-0.8-0.59-2.3 8.99-8.85 7.43-19.13 2.48-31.05-4.75-11.45-6.85-24.33-6.25-38.43 0.07-1.74 1.74-2.6 3.01-1.76 8.18-3.09 17.75-12.96 19.39-19.36 1.85-7.62-5.32-23.62-11.98-28.9-3.17-2.55-7.71-2.68-10.07 0.11-0.89 1.19-0.34 3.06 1.75 2.29 1.36-0.53 2.37-0.5 2.61 0-1.36 3.96-0.39 5.8 4.5 7.75 1.39 0.52 2.09 1.15 1.94 2.94-0.4 4.31 0.3 8.36 0.42 11.56 0.15 3.26-5.49 7.75-11.66 10.03-2.8 1.02-4.23 4.43-7.53 5.83l-2.17 0.17-7.01 1.17z"/>
		<path class="s4" d="m125.12 37.82c5.39 8.34 6.12 16.1 2.77 25.3l-7.68-5.69c-1.09-8.71 0-13.61 4.91-19.61z"/>
		<path class="s3" d="m67.69 49.07c6.49 2.92 10.57 7.09 17.06 12.94 7.21-6.94 16.52-10 28.86-8.29 2.43-6.79 6.33-10.32 10-14.84-3.4 6.38-3.4 10.09-3.4 18.55l7.68 7.08 2.17 11.3c7.05 3.9 7.95 10.97 2.75 18.73-4.92 6.52-15.78 18.18-28.12 17.54-11.63-0.31-23.81-6.98-28.23-11.65-3.01-3.76-3.35-8.22-1.49-13.36 0.52-1.66 0.15-5.15 0.07-9.25-7.92-7.51-10.03-16.71-7.35-28.75z"/>
		<path class="s4" d="m68.56 50.7c4.52 3.06 8.15 8.28 11.15 14.7-2.57 3.69-3.65 7.38-4.3 10.69-6.73-7.16-9.35-15.06-6.85-25.39z"/>
		<path class="s5" d="m121.91 105.06c-1.09 1.39-0.15 3.23 0.74 7.36 3.54 13.41 7.08 26.49 7 37.61-0.57 12.19-8.03 22.18-21.54 21.84-14-0.07-20.37-9.86-20.37-20.91 0-10.2 4.52-23.25 7.52-40.85-4.78-2.99-6.85-2.88-9.21-4.8 12.13 4.14 24.03 3.31 35.86-0.25z"/>
		<path class="s6" d="m131.91 71.1l1.95 3.71c0.75 1.35 2.55 2.28 5.05 2.6l0.8 11.6c0.17 2.1-1.4 3.94-3.9 5.6l-3.6 2.3"/>
		<path class="s5" d="m80.11 87.72c-1.85-7.71-1.02-20 8.9-20.34 7.1-0.27 12.5 10.05 18.1 21.33l3.6-0.48c-0.6-11.8-1.6-27.12 6.9-27.32 5.2-0.13 9.5 6.32 11.2 13.7 0.5 2.55 3.5 3.51 4.9 5.7 3 5.62-1.1 12.82-7.8 19.4-9.8 10.15-22.7 9.41-30.7 7.41-9.4-2.48-18-6.26-18.6-13.41-0.1-3.06 1-5.34 3.5-5.99z"/>
		<path class="s6" d="m116.11 67.01c1.9 1.6 3.5 1.7 6.5 1.4"/>
		<path class="s0" d="m121.11 70.71c-4.9-0.5-5.9 5.1-5.4 8.4 0.7 4.5 3.9 4.8 6.3 4.6 3.8-0.4 6-3.1 5.7-6-0.4-3.9-2.3-6.7-6.6-7z"/>
		<path class="s0" d="m92.71 76.71c-4.9-0.5-7.1 4.9-7.2 7.4 0 4.6 3.2 6.2 5.6 6.1 3.2-0.1 6.2-1.9 7-4 0.6-2-1.1-9.1-5.4-9.5z"/>
		<path class="s5" d="m92.91 79.01c-3.2-0.3-3.5 3.7-1 4.5 3.2 1 4.5-4.1 1-4.5z"/>
		<path class="s5" d="m120.41 72.91c-2.8-0.2-3.1 4-0.4 4.5 3.2 0.6 3.9-4.2 0.4-4.5z"/>
		<path class="s6" d="m88.51 74.51c1.5-0.6 3.2-1.9 4-3.7"/>
		<path class="s7" d="m110.49 94.65c0.56-0.34-7.11-4.85-2.67-5.38 1.43-0.17 4.04-1.21 5.49-0.66 1.5 0.7 0.9 3.2-2.1 5.6l-0.2 1.8c1.6 0.1 2.9 0.8 4 1.8"/>
		<path class="s8" d="m107.81 99.41c0.9-2.4 1.8-3.3 2.9-3.7"/>
		<path class="s0" d="m72.81 143.38c3.8-7.76 8.3-14.83 13.3-17.89 1.6-0.83 1.5 1.65-1.1 4.71-2.8 3.23-3.9 4.73-4.9 9.76-1 5.03-2.3 8.72-3.7 11.78z"/>
		<path class="s0" d="m26.25 42.94c-3.33-7-0.46-14.17 8.47-18.43 8.34-4.05 13.49 0.4 14.85 4.72 1.66 5.21-0.64 8.59-2.13 12.86-0.68 2.17-0.13 4.02 1.17 5.86l-6.49 3.31c-3-3.06-3.34-5.54-1.68-10.6 1.36-4.03 2.47-6.45-0.73-9-3.2-2.02-7.8 1.04-7.6 4.73 0 1.22 0.4 2.12 1.22 3.21zm19.56 14.77c-1.46-3.06-0.2-5.54 2.57-6.8 3.03-1.29 5.53 0.55 6.23 2.72 1 2.93-0.85 5.41-3.62 6.27-2.36 0.76-4.31-0.46-5.18-2.19z"/>
		<path class="s0" d="m149.41 24.31c3.4-6.93 9.3-9.1 17.9-4.7 8.1 4.3 8.1 11.1 6.2 14.9-2.4 4.8-6.4 5.8-11 6.4-2.9 0.4-4.3 1.6-5.7 4.2l-6.2-3.6c2-4.4 4-5.8 9-6.4 4.2-0.6 7-2.8 7-6-0.3-3.6-5.5-5.4-8-3.6q-1.5 1.05-2.4 2.7zm-3.2 23.9c1.6-2.9 4.4-2.9 6.8-1.5 2.4 1.5 2.2 4.5 0.8 6.6-1.8 2.6-5 2.2-6.6 0.6-1.8-1.7-2-4-1-5.7z"/>
		<path class="s0" d="m84.51 16.11c-0.5-7.8 4.9-11.5 12.1-11.5 8.8-0.2 13.4 5 13.4 9.7 0 5.7-3 8-6.4 10.6-2.4 1.8-3.2 3.1-3.2 6h-6.6c-0.6-5 0.4-6.6 4.8-10.2 2.8-2.4 3.8-4 2.6-7.2-1.6-3.3-7.6-3.5-9 0-0.4 0.9-0.6 1.8-0.6 2.6zm8.9 22.6c0.2-3.4 2.6-4.4 4.8-4.2 3.4 0.2 4.4 2.6 4.2 4.8-0.2 3.2-2.6 4.4-5 4.2-2.8-0.2-4.2-2.4-4-4.8z"/>
	</g>
</svg>