<svg xmlns="http://www.w3.org/2000/svg" width="192" height="192" fill="none" viewBox="0 0 192 192">
<!-- SVG created with Arrow, by QuiverAI (https://quiver.ai) -->
  <path d="m180.7 12.81c-3.29-3.08-7.64-2.23-9.39-0.09l-7.34 8.08c-3.85-1.12-6.66 0.61-10.05 4.12l-30.65 31.17c-0.86-2.38-2.45-4.6-4.15-6.96l-1.14-9.42c7.3-12.5 3.51-28.6-4.87-34.93-0.93-0.73-1.79-0.17-2.05 0.96-1.65 6.24-7.25 10.17-8.28 14.22-9.94-4.05-20.27-3.72-28.97 0-1.92-4.7-6.7-7.24-8.62-14.58-0.37-1.32-1.5-1.17-2.07-0.46-9.01 9.89-10.91 21.96-4.5 35.35l-1.56 9.67c-4.35 4.85-5.24 13.94 0.76 20.04l3.06 2.98c-3.06 9.37-10.69 17.05-11.56 28.71-0.7 7.68 2.02 12.27 6.47 14.64l-3.43 18.4-4.87 5.01c-5.52-6.01-5.83-16.6-2.33-29.61 3.05-11.3 5.16-22.24 2.33-34.31-3.41-13.71-13.54-28.37-26.22-28.05-10.52 0.16-14.31 9.21-12.5 16.96 1.65 7.02 8.85 9.2 10.66 18.25 2.38 11.15-4.32 25.65-3.2 39.99 1.28 15.33 9.15 26.23 18.68 31.86-5.09 7.31-9 13.95-11.89 20.27-1.41 1.89-2.84 4.69-3.45 6.54-0.38 1.41 0.54 2.54 2.29 1.89 2.02-0.85 4.58-3.05 6.86-3.99 6.24-2.21 12.48-6.74 18.87-10.6l0.72-0.4c1.16 2.26 2.52 4.41 4.08 6.4-6.24 0.86-9.17 6.27-9.17 12.41l0.29 0.38h22.3c4.77 0 4.63-1.98 5.5-5.92 1.81-7.02 9.68-11.78 17.41-11.78 8.01 0 15.21 5.33 16.34 11.78 0.72 4.05 2.52 5.92 5.57 5.92h23.15l0.1-0.38c0-6.36-3.47-11.12-9.16-13.05 5.35-7.52 5.4-16.17 1.75-25.53-4.16-10.94-7.31-15.97-7.16-32.94 7.48-1.7 12.4-8.72 9.97-18.19-1.07-3.69-1.59-4.71-1.59-7.71 0-1.72-0.53-3.16-1.04-4.12l40.07-30.03c5.09-5.42 5.29-9.79 3.59-15.6l3.51-5.42c0.87-1.42 0.39-2.9 0.25-3.52l7.34-8.48c2.72-3.13 2.3-7.27-0.71-9.93z" fill="#00525A"/>
  <path d="m37.81 151.1c-9.53-5.11-16.73-17.06-17.6-30.01-1.03-13.92 5.76-28.2 3.38-39.1-2.17-9.72-7.26-11.9-9.64-16.96-2.94-6.44 1.56-13.84 9.53-13.73 10.32 0.16 17.95 11.42 19.18 24.01 1.13 11.71-1.54 20.87-4.85 32.58-4.87 17.55-2.7 28.91 6.15 35.82l-6.15 7.39z" fill="#17AE9E"/>
  <path d="m15.71 66.98c8.95 3.13 12.2 13.18 11.92 22.34-0.27 9.42-2.23 17.87-2.33 29.43-0.19 13.39 5.96 25.1 13.44 28.07l2.17-2.71c-8.02-4.39-8.3-17.28-5-31.99 2.94-12.65 7.3-24.01 4-38-2.73-10.89-9.12-22.26-18.5-22.42-6.65-0.1-10.3 8.01-5.7 15.28z" fill="#F0F0D1"/>
  <path d="m63.41 11.11c-6.14 8.9-6.29 17.32-3.04 24.59l5.85-6.79c0-5.7-0.47-11.9-2.81-17.8z" fill="#176170"/>
  <path d="m112.8 11.11c5.1 7.02 5.97 16.44 2.41 23.3l-4.21-4.9c-0.52-7.35 0-10.95 1.8-18.4z" fill="#176170"/>
  <path d="m65.11 34.91 2.07-4.28c-0.27-6.91-1.46-13.62-3.77-19.52 3.3 3.93 7.65 8.2 9.2 13.62 10.12-5.42 22.25-5.42 31.31 0 1.8-4.65 5.31-9.15 8.89-13.62-2.62 6.65-2.78 12.56-2.78 19l4.88 8.79c1.23 2.59 1.37 8.28 0.3 12.04l3.6 5.96c0.87 2.03 0.4 3.96-0.73 5.38l-13.59 14.87c-5.85 3.56-10.63 4.16-16.48 4.16-7.48 0-16.7-3.9-23.9-8.81-7.05-4.8-8.18-10.38-6.38-15.38 0.87-2.6 2.68-3.91 5.06-4.93l2.32-17.28z" fill="#17AE9E"/>
  <path d="m69.01 33.89c5.85-1.78 13.1 1.82 17.1 28l-0.47 0.74 4.98-0.32c0.67-12 5.6-29.4 14.66-28.8 7.05 0.43 8.46 10.48 8.83 18.51l1.81 0.27c2.22 1.26 4.02 5.69 2.69 8.51l-13.9 15.7c-6.29 3.45-9.9 4.1-16.7 4.1-6.9 0-16.9-3.94-21.99-7.31-4.31-2.87-9.91-6.87-9.04-13.78 0.42-3.5 2.13-6.42 6.43-7.32 0.42-7.08 2.07-17.17 5.6-18.3z" fill="#F0F0D1"/>
  <path d="m85.64 62.63c2.07-0.57 4.19-0.62 6.17 0 2.02 0.7 1.6 3.3-0.83 4.71-0.97 0.56-1.73 1.52-0.97 2.32 1.65 1.79 3.62 0.49 4.8-0.98 0.72-0.9 1.8 0.06 1.23 1.03-1.41 2.65-5.11 3.5-7.83 1.22-2.43 1.78-6.13 1.14-7.41-1.38-0.52-1.16 0.85-1.96 1.61-1.04 1.32 1.64 3.44 1.75 4.71 0.34 0.87-0.96-0.41-1.66-1.91-2.74-1.8-1.26-1.59-2.9 0.43-3.48z" fill="#00525A"/>
  <path d="m71.63 41.94c5.25-1.02 7.46 4.94 7.19 11.91-0.1 2.54-2.07 2.76-4.6 3.09-5.2 0.7-8.5-2.86-8.5-7 0-3.88 2.43-7.39 5.91-8z" fill="#00525A"/>
  <path d="m104.1 41.61c-5.03 0.7-6.84 7.2-6.62 12.3 0.1 2.24 2.53 2.67 5.88 2.83 4.62 0.11 7.15-3.4 7.1-7.01-0.1-4.6-2.53-8.6-6.36-8.12z" fill="#00525A"/>
  <path d="m73.91 45.39c1.65 0 2.62 1.17 2.62 2.36s-0.92 2.14-2.05 2.14c-1.37 0-2.34-1.08-2.34-2.25s0.71-2.25 1.77-2.25z" fill="#F0F0D1"/>
  <path d="m103.6 45.39c1.5 0 2.17 1.07 2.17 2.14 0 1.22-1.08 2.13-2.17 2.13-1.28 0-2.14-1.12-2.14-2.24s0.86-2.03 2.14-2.03z" fill="#F0F0D1"/>
  <path d="m65.11 73.23c-2.94 10.68-11.32 18.99-12.19 28.5-0.87 9.05 4.43 13.59 12.19 14.71 4.62 0.61 5.09 0.77 7.67 3.31 2.23 2.28 5.23 1.95 6.83 1.3 4.11-0.6 6.33-5.84 5.71-8.33-0.87-3.51-3.09-5.59-7.87-7-4.67-1.41-8.67-5.29-9.24-10.62-2.12 2.6-0.37 8.29 7.85 12.09 2.57 1.18 6.32 1.73 7.3 6.75 0.42 2.28-1.08 5.09-2.49 5.31l-3.56-3.14 1.07 3.81c-2.32 0.27-3.69-1.31-5.66-3.49l-4.67 1.69-8.01 8.89-2.33 0.51 2.33-10.36 5.69 0.96 0.37-0.96c-2.33-0.95-7.01-1.11-10.45-5.04-4.21-4.76-4.63-13.07 2.06-24.01 3.2-5.15 6.14-10.42 7.4-14.88z" fill="#17AE9E"/>
  <path d="m110.1 137.8c0 13.12-7.87 23.95-21.81 23.95-13.27 0-18.41-7.35-19.92-14.37l37.85-40.36c1.8 8.07 3.88 20.02 3.88 30.78z" fill="#F0F0D1"/>
  <path d="m70.11 147.1c2.88 8.74 8.62 16.6 21.13 16.98 12.47 0.38 18.81 7.64 19.68 16.06 0.21 1.93 1.13 2.63 2.89 2.63h14.99c-1.08-3.88-3.85-5.01-13.02-4.68 8.43-9.42 10.5-18.94 6.34-30.99-4.35-12.3-6.97-16.79-6.97-33-3.35-1.31-5.1-4.12-5.82-5.96l-1.6 0.91-37.62 38.05z" fill="#17AE9E"/>
  <path d="m117.1 84.85c2.94-1.02 5.01 1.85 5.98 5.78l1.32-0.48c-0.27-4.43-4.06-7.4-6.69-7.13-2.67 0.27-6.41 3.09-7.69 5.32-1.6 2.92 0.42 5.52 1.39 7.8 0.62 1.47 0.3 3.05-0.67 5.75l1.36 4.1c2.28-4.9 2.99-10.01 1.02-13.09-1.02-1.69-1.99-3.27-1.02-4.29 1.5-1.58 4.5 1.24 5.37 3.52 1.13-1.07-0.73-5.05-3.77-5.91 0.47-0.61 2.02-0.93 3.4-1.37z" fill="#17AE9E"/>
  <path d="m160.7 24.92c2.12-0.8 4.09 0.73 5.59 2.41l2.88 2.92c1.32 1.36 1.05 2.99 0.18 4.57l-2.12 3.67-10.83-10.36c1.02-1.42 2.52-2.49 4.3-3.21z" fill="#F0F0D1"/>
  <path d="m174.8 15.53c1.22-1.22 2.92-0.78 3.64 0.23 1.13 1.47 0.41 3.4-0.72 4.66l-7 7.7-3.51-3.61 7.59-8.98z" fill="#D3E2D0"/>
  <path d="m152.8 30.52 13.11 12.59-41.85 41.96-12.99-11.61 41.73-42.94z" fill="#17AE9E"/>
  <path d="m157.6 33.06 6.3 5.85-47.16 43.1-3.1-3.08 43.96-45.87z" fill="#267BAE"/>
  <path d="m106.8 78.02 4.16-0.27 4.77 4.9-2.99 2.37-7-5.69 1.06-1.31z" fill="#F0F0D1"/>
  <path d="m104.4 83.45 3.61 3.08-24.18 22.48-1.75-1.88 22.32-23.68z" fill="#78D8C2"/>
  <path d="m167.4 43.61 0.42 1.31c0.62 3.4-0.93 7.55-3.97 10.73l-25.6 26.52c-2.94 2.28-4.59 5.15-4.59 7.08 0 1.84 2.43 2.49 3.3 0.8 1.75-3.66 4.13-6.26 8.19-10.54l21.61-22.5c5.09-5.16 4.99-10.26 3.39-15.07l-2.75 1.67z" fill="#00525A"/>
  <path d="m37.55 156.2 9.43 8.94-16.88 9.05-2.08-1.48 9.53-16.51z" fill="#F0F0D1"/>
  <path d="m40.91 158.8 3.74 3.45-14.74 11.56-1.18-1.18 12.18-13.83z" fill="#B4D2C0"/>
  <path d="m39.91 154 9.53 8.89 25.2-26.26-10.58-9.6-24.15 26.97z" fill="#267BAE"/>
  <path d="m66.22 129.6 2.17 1.58-24.11 24.11-1.91-1.22 23.85-24.47z" fill="#78D8C2"/>
  <path d="m48.11 182.7c0.72-3.55 3-5.01 7.01-5.01h5.09v-0.96c-3.51-2.7-7.3-8.71-8.43-11.63l24.84-29.28 35.09-38.8-1.6-3.56c-1.37-3.6 0.6-6.36 3.32-7.53l-8.59-7.95-25.65 27.4-1.02 1.22 1.55 0.8c4.21 1.98 5.71 4.53 5.6 7.72-0.15 3.77-2.87 7.97-6.51 7.97-3.7 0-3.7-0.43-6.8-2.97l-7 6.44 1.5 0.85 9.84 8.42-26.64 28.29c0.47 0.97 0.37 1.93-0.76 2.89l-1.86 0.9 1.02 0.58v1.49l-0.97-1.79-11.13 7.13-1.9 0.6 1.9-2.04 0.48-1.17-2.38 2.18-4 1.84-1.9 0.96-1.13-2.38 1.13-3.13-1.97 2.71-1.23 3.18-0.87 2.81 2.07-1.47 2.94-1.34 2.38-0.8 2.17-0.9 3.51-1.89 3.25-2.3 3.25-2.2 4.4-2.97v1.48-1.48l0.97 0.56-0.97-1.52v-1.93l-1.96-1.24-8.94-8.17-1.2-1.63 1.2-1.02 1.46-3.08 2.24-3.51 3.51-3.99 3-2.86 2.53-1.42 1.76-1.68 1.65-1.42 0.97-0.96 1.55-1.02 1.23-1.36 1.75-1.69 1.55-1.41 1.71-1.58 1.8-1.17 1.07 0.9-1.07 1.22-1.75 1.58-1.76 1.84-1.8 1.68-1.76 1.74-1.8 1.93-1.8 1.98-1.55 1.84-1.76 1.87-1.97 2.08-3.66 4.61-1.9 2.39-1.32 2.13-1.18 1.23v0.85l1 0.53v0.84l1.46 0.91 0.86 0.85 1.06 0.84 1.13 0.91 0.72 0.85 0.97 0.91 1.02 0.85 0.86 0.91 0.47 0.95v0.96l-0.47 0.96-0.87 0.65-1.02 0.32-0.97 0.55-1.5 0.61-1.41 0.61-1.76 0.9-1.55 0.9-1.8 0.96-1.5 0.65-1.51 0.96-1.36 0.73-1.23 0.7-1.22 0.72-1.37 0.55-1.18 0.51-1.13 0.36-1.12-0.36-0.38-1.06 0.38-1.43 1.12-2.7 1.13-2.08 1.17-2.38 1.37-2.6 1.51-2.7 1.75-2.87 1.51-2.39 1.5-2.23 1.18-1.87 1.18-1.49 1.5-2.13 1.37-2.03 1.65-2.33 1.76-2.08 1.75-2.13 1.76-2.09 2.02-2.28 1.55-1.63 1.07-1.21 1.18-1.47 1.23-1.16 1.27-1.42 1.23-1.31 1.18-1.22 1.17-1.17 2.46-2.62 1.12-1.26 1.32-1.47 1.22-1.47 1.07-1.07 1.32 0.56-4.98 7.33-1.07 1.17" stroke="#00525A" stroke-miterlimit="10" stroke-width="1.24"/>
</svg>