<svg version="1.2" xmlns="http://www.w3.org/2000/svg" viewBox="0 0 250 245" width="250" height="245">
	<style>
		.s0 { fill: #98ccc6 } 
		.s1 { fill: #1c6168;stroke: #002e36;stroke-linecap: round;stroke-linejoin: round;stroke-width: 2.5 } 
		.s2 { fill: #51aeac;stroke: #002e36;stroke-linecap: round;stroke-linejoin: round;stroke-width: 2.5 } 
		.s3 { fill: #7fc2ba;stroke: #002e36;stroke-linecap: round;stroke-linejoin: round;stroke-width: 2.5 } 
		.s4 { fill: #002e36 } 
		.s5 { fill: #2f8482 } 
		.s6 { fill: #c5e8db;stroke: #002e36;stroke-linecap: round;stroke-linejoin: round;stroke-width: 2.5 } 
		.s7 { fill: #2f8482;stroke: #002e36;stroke-linecap: round;stroke-linejoin: round;stroke-width: 2.5 } 
		.s8 { fill: none;stroke: #002e36;stroke-linecap: round;stroke-linejoin: round;stroke-width: 2.5 } 
		.s9 { fill: #f9be48;stroke: #002e36;stroke-linecap: round;stroke-linejoin: round;stroke-width: 2.5 } 
		.s10 { fill: #f9be48 } 
		.s11 { fill: none;stroke: #002e36;stroke-linecap: round;stroke-linejoin: round;stroke-width: 1.9 } 
		.s12 { fill: #d49a2b } 
		.s13 { fill: #f9be48;stroke: #002e36;stroke-linecap: round;stroke-linejoin: round;stroke-width: 1.9 } 
		.s14 { fill: #003945;stroke: #002e36;stroke-linecap: round;stroke-linejoin: round;stroke-width: 1.9 } 
		.s15 { fill: #f9f5d4 } 
		.s16 { fill: none;stroke: #f9f5d4;stroke-linecap: round;stroke-linejoin: round;stroke-width: 1.9 } 
		.s17 { fill: none;stroke: #002e36;stroke-linecap: round;stroke-linejoin: round;stroke-width: 3.8 } 
		.s18 { fill: #f9f5d4;stroke: #002e36;stroke-linecap: round;stroke-linejoin: round;stroke-width: 1.9 } 
		.s19 { fill: #e5b19d;stroke: #002e36;stroke-linecap: round;stroke-linejoin: round;stroke-width: 2.5 } 
		.s20 { fill: none;stroke: #98ccc6;stroke-linecap: round;stroke-linejoin: round;stroke-width: 1.9 } 
		.s21 { fill: none;stroke: #003945;stroke-linecap: round;stroke-linejoin: round;stroke-width: 2.5 } 
		.s22 { fill: #c5e8db;stroke: #003945;stroke-linecap: round;stroke-linejoin: round;stroke-width: 1.9 } 
		.s23 { fill: #e5b19d } 
		.s24 { fill: none;stroke: #003845;stroke-linecap: round;stroke-miterlimit:10;stroke-width: 2.9 } 
		.s25 { fill: #003845 } 
		.s26 { fill: #f9f8d9 } 
		.s27 { fill: none;stroke: #003845;stroke-linecap: round;stroke-miterlimit:10;stroke-width: 2.1 } 
		.s28 { fill: #cc998a;stroke: #003845;stroke-miterlimit:10;stroke-width: 1.4 } 
	</style>
	<g id="Layer 1">
		<path class="s0" d="m42.23 230.88c0-3.98 20-5.79 44.47-7.64l28.66 0.02c2.03 0 3.28 1.6 4.9 1.85l32.03 0.84c17.81 0.46 24.19 3 24.19 5.37 0 3.65-18.2 6.07-50.22 6.07-16.67 0-26.02-0.63-32.36-1.85l-10.29 1.17-10.72-2.21c-10.29-1.65-30.66-1.24-30.66-3.62z"/>
		<path class="s1" d="m181.02 232.26h61.24c0.75 0 1.38-0.61 1.38-1.37v-121.05c0-0.75-0.63-1.38-1.38-1.38h-16.44c-1.51 0-2 0.78-2 2.69v13.75c0 0.76-0.61 1.38-1.37 1.38h-3.56l-6.78 7.46-2.06-0.73-2.56 0.82-2.5-3.62-4.13 0.12-4.52 2.43-3.94 4.45 0.46 0.68c0.46 0.67 0.35 1.61-0.29 2.14-11.17 9.28-21.98 17.62-31.49 16.61-3.93-0.44-7.19-0.88-10.24-1.53l-2.33 7.15c6.5 8.83 12.48 18.17 11.83 30.39-0.83 15.06-12.5 24.11-16.33 26.3 5.75-0.22 16.26-0.69 20 6.88 1.23 2.72 0 2.93-1.24 2.72l-5.16 1.23-3.01 0.65-28.5-2.33c-3.71-0.37-4.7-3.06-3.38-6.77 0.65-1.93-2.23-6.44-4.56-8.14l-21.57 2.32-8.33 4.73 7.09 6.41 2.54 5.4c0.43 1.59-2.54 3.28-4.47 2.35l-2.56 1.13-6.6 0.65-2.87-0.22-17.31-4.72c-3.93-1.5-2.98-4.8-1.66-11l-26.09-13.94c-15.19-10.97-25.07-24.47-25.07-45.29 0-17.2 7.85-28.9 10.28-42.25 2.42-13.35-0.63-19.55-10.28-29.85-10.3-9.87-3.79-25.06 8.73-30.21 7.52-2.42 18.66-0.1 25.27 6.2 9.76 9.49 14.39 22.96 12.25 39.74-2.32 16.56-11.37 31.75-16.96 46.5-4.23 11.49-3 21.25 2.05 29.09l6.09-1.69c-0.43-19.23 3.58-37.4 12.66-57.25l10.66-23.55c3.29-8.35 1.51-18.23 7.71-33.41-14.16-8.57-16.81-21.49-14.38-31.58 1.7-6.99 4.02-8.69 8.75-8.04 7.52 0.65 16.08 6.64 20.12 8.97 2.1-12.39 9.63-20.95 20.29-25.28 3.71-3.01 16.52-3.22 21.46 0 10.19 4.53 16.89 12.45 19.21 25.28 6.62-4.24 12.4-8.1 21.36-9.62 4.83-0.82 6.17 4.29 6.38 10.49-0.21 10.3-4.45 19.35-14.32 26.18 2.89 5.53 2.89 12.13 4.99 18.95 4.67 9.13 2.35 22.61-23.55 36.77 5.15 6.61 8.37 13.03 19.03 13.03 3.6 0 7.3-1.57 11.02-3.65l3.32 1.08 1.51 5.42 2.48 3.81-2.48 1.29-1.95 0.35-1.93-0.27v1.34 31.93l-7.24-0.12c-0.76 0-1.09 0.62-1.09 1.37v8.56c0 0.76 0.61 1.37 1.38 1.37h5.57v48.93c0 0.76 0.61 1.37 1.37 1.37z"/>
		<path class="s2" d="m179.54 183.82h65.35v48.33h-61.65v-48.33z"/>
		<path class="s3" d="m244.53 109.69h-16.89c-1.32 0-2.13 0.6-2.13 2.57v13.07c0 1.31-0.53 2.25-2.5 1.81l-2.87-0.31-6.98 7.68 1.8 2.89c0.94 1.49-0.31 4.83-1.8 4.39l-1.68-0.34-4.73 9.69 4.73 2.56v8.56c0 1.7-1.22 4.03-3.78 4.03h36.83z"/>
		<path class="s2" d="m244.53 139.53c-13.21-3.39-18.32 5.17-21.83 15.15l-2.56 4.21c-0.82 1.69-0.38 5.17 2.51 5.17h1.99l4.87 5.45h15.01z"/>
		<path class="s1" d="m244.53 148.35c-1.88-2.14-3.52-2.19-5.54-2.19-5.27 0-7.6 4.98-7.6 9.7 0 4.93 4.51 7.48 7.6 7.48 2.15 0 4.02-0.65 5.54-2.33z"/>
		<path class="s4" d="m189.76 192.07c1.63 0 2.25-1.33 2.25-2.12 0-1.09-1.07-1.71-2.03-1.71-1.33 0-2.09 1.07-2.09 1.91 0 1.09 0.94 1.92 1.87 1.92z"/>
		<path class="s4" d="m189.97 225.6c1.32 0 2.04-1.21 2.04-2.03 0-1.1-1.07-1.72-1.82-1.72-1.43 0-2.19 1.09-2.19 1.91 0 1.09 0.94 1.84 1.97 1.84z"/>
		<path class="s4" d="m233.1 117.39c1.54 0 2.1-1.25 2.1-2.03 0-1.19-1.09-1.84-1.89-1.84-1.31 0-2.07 1.2-2.07 2.03 0 1.09 0.94 1.84 1.86 1.84z"/>
		<path class="s5" d="m185.15 169.51l2.33-3.01-2.78-4.72 3.19-4.13 3.51 1.03 2.88-3.57h4.12l1.33 2.54 4.51 0.65 1.52 1.23 2.88-1.23 2.02 1.23v9.98z"/>
		<path class="s3" d="m198.19 165.19c-3.3 0-4.24 3.01-4.24 4.32h8.95c0-1.68-1.92-4.32-4.71-4.32z"/>
		<path class="s6" d="m175.76 171.2h67.97v9.98h-68.58v-9.04c0-0.54 0.08-0.94 0.61-0.94z"/>
		<path class="s5" d="m182.39 183.92h62.14v2.44h-62.14z"/>
		<path class="s7" d="m149.65 117.39c4.36 6.96 9.2 14.62 20.07 13.97 3.29-0.21 6.48-1.03 9.88-2.56l5.42 8.21-1.51 1.84c-9.25 7.52-17.11 11.56-22.41 10.46-8.36-1.67-13.7-14.08-13.91-23.35 0-3.22 0.82-6.23 2.46-8.57z"/>
		<path class="s2" d="m149.97 118.91c3.93 6.6 8.44 12.14 18.32 12.14 3.28 0 5.61-0.65 8.89-1.87l0.6-0.61 6.06 8.44-0.94 1.09c-7.96 6.6-14.5 10.43-20.04 9.66-8.96-1.22-14.29-12.53-15.21-21.37-0.33-3.11 0.36-5.29 2.32-7.48z"/>
		<path class="s1" d="m156.21 35.01c4.68-3.47 13.84-8.92 21.06-10.25 5.24-0.95 6.57 5.13 6.57 10.25-0.44 10.98-5.16 20.13-15.04 26.33l-6.6-14.79-5.99-6.2z"/>
		<path class="s8" d="m161.59 43.69c3.51-7.66 8.67-13.74 16.51-17.93"/>
		<path class="s1" d="m95.46 34.36c4.24 2.9 11.94 7.73 9.84 10.8-1.92 3.1-4.37 7.31-7.41 8.28-1.71 0.32-3.65-4.97-10.04-5.74 0.55 1.59 2.75 4.77 3.58 6.87l-3.58 0.57 2.09 3.67-3.55 1.91 1.46 3.13-6.4 1.05c-11.27-6.51-16.44-17.63-14.96-29.09 1.08-8.23 3.62-11.75 8.85-11.1 8.56 0.95 15.76 6.64 20.12 9.65z"/>
		<path class="s8" d="m78.72 27.73c8.8 4.72 15.19 11.79 17.62 22.19"/>
		<path class="s9" d="m157.54 40.35c3.35 1.56 5.47 3.34 5.11 5.04-0.82 3.69-13.89 4.33-23.97 4.33-15.62 0-29.42-4.12-34.98-7.01-2.21-1.11-7.91-8.35-7.91-8.35 2.32-13.07 9.85-21.63 21.22-25.96 4.13-2.32 15.69-2.32 20.2 0.43 11.06 5.77 17.68 14.33 19 28.43z"/>
		<path class="s10" d="m117.01 9.63c4.34-1.44 14.1-1.34 18.44 1.19 8.82 4.94 15.44 12.8 17.45 26.44l0.65 1.53c-6.98 2.1-19.9 2.52-29.39 1.77-8.14-0.65-15.22-1.87-22.75-4.89l-3.85-1.78c2.14-11.42 8.51-20.09 19.45-24.27z"/>
		<path class="s11" d="m115.75 10.28c6.1 0.65 12.7 5.48 14.4 13"/>
		<path class="s11" d="m142.78 13.29c2.42 3.01 3.07 6.02 1.27 8"/>
		<path class="s12" d="m115.75 10.28c-7.23 4-9.89 11.52-8.95 20.08 0.44 3.53 2.76 5.22 6.46 6.9 1.44 0.64 0.79 2.57-1.54 2.35-3.41-0.4-7.46-1.71-11.46-3.47l-3.62-1.78c2.42-11.67 9.32-20.4 19.11-24.08z"/>
		<path class="s13" d="m157.54 40.35c3.35 1.56 5.47 3.34 5.11 5.04-0.82 3.69-13.89 4.33-23.97 4.33-15.62 0-29.42-4.12-34.98-7.01-1.69-0.93-2.93-2.36-4-4.13 8.94 3.01 17.87 3.81 27.65 3.81 8.94 0 18.45-0.8 28.86-3.6z"/>
		<path class="s1" d="m148.89 116.45c16.05-6.86 29.37-18.93 26.69-32.54-1.68-7.96-6.94-26.39-12.32-33.77-3.4-0.41-10.52 1.27-15.42 1.27l-16.7-0.81c-7.24 0-16.06-1.52-21.23-5.21 3.18 5.42 10.52 9.3 15.03 10.89 4.34 0.42 5.99 1.61 8.57 6.36 3.7 6.95 7.84 15.63 11.64 16.75 3.3-1.12 2.99-18.17 3.3-27.98l10.61-1.27c-4.17 4.88-5.72 18.8-5.72 33.56 0 4.56 2.77 7.1 3.54 9.65-1.68 1.22-3.19 3.25-4.14 5.44-1.46 3.28-5.16 3.07-6.96 1.75-3.18-1.97-3-5.97 2.67-5.97 3.03 0 5.45 0.44 5.45 2.77 0 1.67-2.42 4.52-4.97 4.85-0.65 0.82-0.17 3.01 1.16 6.08-4.83-0.63-7.84 0.19-11.3 1.3 4.94-0.78 7.49-0.68 10.1 1.27-4.93 4.32-11.79 6.55-16.62 6.55 4.94 1.31 11.02 0.87 16.62-0.94z"/>
		<path class="s14" d="m157.2 70.76c-1.92 0.65-3.19 9.58-2.62 15.13 0.52 5.12 4.06 6.18 7.73 5.23 6.4-1.78 7.74-9.86 7.74-13.55-4.22-1.06-9.89-3.12-12.85-6.81z"/>
		<path class="s15" d="m161.1 81.59c2.39 0 3.19-1.82 3.19-3.32 0-1.97-1.64-3.07-3.19-3.07-2.04 0-3.13 1.69-3.13 3.07 0 1.79 1.47 3.32 3.13 3.32z"/>
		<path class="s16" d="m165.51 85.08c-1.44 2.43-3.08 2.96-4.19 2.43"/>
		<path class="s17" d="m126.36 61.95c-1.44 2.2-3.52 3.64-5.58 3.96"/>
		<path class="s17" d="m155.21 61.34c1.1 1.69 2.44 2.62 4.45 3.25"/>
		<path class="s14" d="m105.86 79.24c8.71-0.43 15.68-2.98 19.08-7.19 3.57 4.42 3.57 11.74 2.92 15.99-0.43 2.31-9.26 5.31-12.69 5.31-7.83 0-10.26-5.52-12.58-10.69-1.08-2.32 0-3.42 3.27-3.42z"/>
		<path class="s15" d="m122.73 83.03c2.53 0 3.26-1.8 3.26-3.31 0-1.96-1.69-3.06-3.04-3.06-2.17 0-3.26 1.79-3.26 3.06 0 1.98 1.66 3.31 3.04 3.31z"/>
		<path class="s16" d="m109.91 84.55l4.14 3.49"/>
		<path class="s18" d="m145.26 164.64c0 20.27-9.28 42.75-43.63 48.12l-5.03 0.43-8.95 6.21-26.76-4.32-22.54-3.92v-24.8l2.88-5.56 8.5-2.26h7.93l2.33-8.35 22.44 1.84 2.65 2.66 6.71-9.5-1.64-0.55c-12.51 0-27.6-1.3-29.26-16.88l0.32-15 3.52-12.6 10.61-21.9c2.32-5.43 2.32-24.2 7.05-32.76l4-1.65-1.51-2.51 2.97-2.53-0.82-3.01 3.82-0.87-3-7.23c3.51-0.64 7.08 2.03 8.75 5.74 1.69 0.81 5.03-4.36 6.54-7.59 5.17 2.79 15.04 5.56 24.21 5.56 4.23 0 11.33 13.79 12.66 16.35 2.03 4.33 3.83 9.47 5.77 9.82 2.06-1.32 2.06-15.63 2.67-26.17l10.61-1.27c2.43 2.54 10.78 17.62 12.72 27.44 0.95 4.56 2.73 6.33 1.78 12.55-1.98 12.16-15.47 22.13-24.67 26-5.05 2.32-11.79 3.42-17.21 2.78 5.53 1.94 9.67 1.25 14.85-0.46-2.23 10.03-1.27 22.69 0.66 36.66 0.21 3.19 0 6.34-0.66 9.53z"/>
		<path id="Layer copy" class="s1" d="m61.5 137.45c0 0 19.71-25.64 19.92-27.94 1.45-15.71 36.88-13.35 10.52 55.09 0 0-11.54 1.28-20.39-2.41-7.64-3.18-10.8-10.1-10.11-19.54 0.52-7.1 0.17-10.46 0.17-10.46l3.11-12.03 10.62-21.9c2.32-5.44 2.32-24.2 7.05-32.76l4-1.65-1.52-2.51 2.98-2.53-0.82-3.01 3.82-0.88-3-7.22c3.51-0.64 7.07 2.02 8.75 5.74 0.31 0.15-0.49 4.42-2.11 10.95 1.9-5.09 5.96-12.94 7.12-15.28 4.3-8.66-11.25 30.16-7.2 40.7 4.24 10.99 8.88 16.4 18.1 18.94l-3.46-0.55c4.78 0.69 3.96 0.68-3.57-0.71-6.74-1.25-16.23-6.63-17.46-12.67-0.82-4.05-4.36 53.88-3.51 48.88"/>
		<path class="s1" d="m148.89 166.29c6.21 7.41 10.45 15.75 9.96 27.02-0.65 11.98-11.45 23.45-21.09 26.46l-11.28 2.08c-1.22-4.88-2.84-7.56-6.35-10.32 14.16-6.46 25.64-16.21 27.88-32.77 0.65-4.5 0.88-8.57 0.88-12.47z"/>
		<path class="s5" d="m144.65 187.59c-3.09 6.95-4.64 13.55-0.6 16.1 4.52 2.08 11.15-2.55 13.49-9.15 0.76-9.38-1.11-16.93-6.06-23.34l-2.59-1.69c-0.94 5.88-1.93 12.53-4.24 18.08z"/>
		<path class="s0" d="m108.98 113.83c9.98 2.62 19.37 4.26 26.99 3.56-6.19 4.12-16.28 4.12-26.99-3.56z"/>
		<path class="s1" d="m43.41 178.76c-5.84-10.3-6.16-19.66-0.6-33.72 6.92-16.24 14.24-29.03 14.64-45.83 0.33-14.7-6.29-29.01-16.22-35.96-8.7-5.55-20.09-5.55-26.08-0.82-8.82 6.85-8.82 17.46-1.72 24.32 7.71 7.41 13.38 10.99 11.58 25.51-1.56 11.58-8.66 23.67-9.86 38.88-1.94 20.69 5.99 39.91 22.43 50.89l1.22-14.44z"/>
		<path class="s5" d="m41.8 90.95c0.43-5.78 5.49-7.25 9.36-3.13 6.19 6.76 3.64 25.22-2.76 41.08-5.44 13.24-12.04 23.76-11.39 38.11l0.56 14.34 3.65-1.81c-6.96 4.02-9.86 1.26-16.21-6.84-8.66-10.97-9.86-25.5-4.81-38.75 3.7-9.69 8.38-21.36 4.81-33.19-0.95-3.57 3.57-4.77 7.51 0 0-5.75-0.64-9.96 3.06-11.42 3.06-1.3 4.58-0.43 6.22 1.61z"/>
		<path class="s0" d="m13.43 66.13c5.41-5.24 14.6-5.41 21.09-2.88 10.67 4.2 19.37 16.98 20.49 30.1-1.22-12.07-11.6-25.9-23.05-30.1-6.95-2.52-14.17-1.7-18.53 2.88z"/>
		<path class="s5" d="m88.96 82.01c-4.32 5.41-4.53 14.59-7.51 20.74-6.11 13.05-14.86 19.99-17.77 25.72-2.79 13.88-1.72 25.44 12.27 30.84 5.41 2.14 10.44 2.73 17.4 2.95l2.11-2.73-6.5-8.39c-3.98-4.65-2.57-10.93 3.83-23.49-2.64 8.74-2.64 14.81 2.08 18.89 2.33-4.03 4.19-15.6 3.54-23.8-0.64-7.58-3.73-13.17-8.26-19.99 6.19 6.82 6.19 5.53 2.64 1.29-8.37-9.25-8.55-21.68-0.94-24"/>
		<path class="s19" d="m136.07 220.67c5.59-0.94 16.67-3.02 22.78 0 3.3 1.57 5.85 5.35 5.18 6.66l-2.71 0.1-3.12 1.12-3.42 0.65-27.43-2.2c-4.04-0.44-4.86-2.97-3.05-6.32h3.05c1.68 1.11 4.23 0.9 8.72-0.01z"/>
		<path class="s8" d="m160.89 227c-1.34-3.64-5.36-6.33-10.63-5.68"/>
		<path class="s8" d="m156.76 227.65c-1.56-3.69-4.44-5.41-11.5-4.99"/>
		<path class="s19" d="m98.07 233.15c-0.51-3.37-3.56-7.01-8.56-7.97l-5.61-0.83-4.62 0.33-7.95-0.77-6.32-1.46c-1.33 3.36-2.41 6.75 1.58 8.44l16.89 5.61 4.17-0.32 2.5-0.33 3.2-0.32z"/>
		<path class="s8" d="m84.98 235.2c-0.65-3.15-2.87-4.44-5.7-4.99"/>
		<path class="s8" d="m91.79 234.89c-0.64-3.54-3.53-5.36-6.28-5.69"/>
		<path class="s7" d="m101.41 192.07l-0.65 21.56-20.31 6.61-43.65-9.08v-24.8l6.5-7.6 15.62-0.94 23.19 4.22 14.49 3.12z"/>
		<path class="s20" d="m38.8 193.76l-0.22 16.75"/>
		<path class="s11" d="m37.57 186.36l42.77 7.06 6.87-7.6 10.57-1.9"/>
		<path class="s8" d="m80.34 199.96l20.86-4.64"/>
		<path class="s8" d="m80.34 200.51v18.67"/>
		<path class="s21" d="m77.66 182.89l-18.1-2.3c-1.9-0.26-2.55-1.61-2.55-4.18v-1.72c0-2.3 1.33-4.03 3.57-3.6l16.76 2.32c2.2 0.43 3.42 1.28 3.42 3.6v4.34c0 2.1-1.22 2-3.1 1.54z"/>
		<path class="s21" d="m61.52 175.35l14.43 1.8v5.52"/>
		<path class="s22" d="m54.59 194.64l5.51 0.79v7.27l-1.34 0.89-4.17-1.45z"/>
		<path class="s7" d="m186.76 107.03c-3.92-3.02-7.86-1.06-8.98 1.25l3.7 3.23c1.68 1.69 0.79 5.04-1.88 5.88-3.7 1.21-5.7-3.56-7.03-5.88-3.81 4.32-0.47 10.69 5.83 13.02l1.2 1.3 3.8 2.43 10.38 8.28 5.85-3.65-5.68-12.04-1.94-2.59c0.22-4.43-0.61-8.36-5.25-11.23z"/>
		<path class="s19" d="m190.19 122.31l-2.3 0.96c-3.94-0.53-6.99 1.08-8.29 4.99-1.2 3.9 0 7.66 3.05 9.16 1.92 1.05 4.39 0.68 5.99-0.41l4.37-1.79-5.34-6.96 2.52-3.74z"/>
		<path class="s23" d="m193.29 118.26l1.31-2.14c1.44-1.83 4.45-0.32 4.45 2.14l-0.65 2.59c1.92-0.69 4.36 0.44 5.19 2.42 0.95 2.24 0 4.78-2.33 5.9-2.86 1.34-5.75-0.91-6.06-3.35"/>
		<path class="s8" d="m193.29 118.26l1.31-2.14c1.44-1.83 4.45-0.32 4.45 2.14l-0.65 2.59c1.92-0.69 4.36 0.44 5.19 2.42 0.95 2.24 0 4.78-2.33 5.9-2.86 1.34-5.75-0.91-6.06-3.35"/>
		<path class="s8" d="m199.05 120.85l-3.16 2.43"/>
		<path class="s3" d="m140.65 137.43l-7.83 7.27c-2.55 0.82-5.47-2.19-6.3-4.49l8.17-9.89c-5.67-3.01-16.3-0.93-18.12 11.13l-0.82 3.25-9.45 8.56-7.24-1.1-7.27 7.89 4.81 8.82c2.67 3.52 7.1 5.7 9.26 1.32 2.66 1.01 4.99-0.68 4.99-3.9 3.2 0 4.32-3.56 3.2-5.71l9.01-7.32c9.65 2.67 18.6-4.52 18.98-13.05 0-1.57-0.48-2.67-1.39-2.78z"/>
		<path class="s23" d="m92.79 163.85l4.56-7.55 1.06-3.04 6.24-0.6c2.59 0 3.12 3.43 3.12 4.38l4.82 4.41c1.31 1.98-0.33 5.56-3.52 4.84l-2.55-1.1 1.25 2.2c-0.53 2.12-3.23 2.8-4.75 1.49l-2.76 1.31z"/>
		<path class="s24" d="m109.04 64.41c4.8 0 7.6-2.8 9.2-5.6"/>
		<path class="s25" d="m119.04 67.21c-7.2 0-10.4 5.6-10.4 11.6 0 6 4 8.8 8.8 8.8 4.8 0 11.6-2.8 11.6-6 0-6.4-2.8-14.4-10-14.4z"/>
		<path class="s26" d="m122.24 77.61c2.4 0 2.8-2 2.8-3.2 0-1.6-1.2-2.8-2.8-2.8-1.6 0-2.8 1.2-2.8 2.8 0 1.2 0.8 3.2 2.8 3.2z"/>
		<path class="s24" d="m155.75 58.01c1.6 2.8 2.8 3.6 6.4 3.6"/>
		<path class="s25" d="m158.63 62.81c-3.6 0-5.2 3.2-5.2 12.3 0 6.8 1.2 9.2 4.4 9.2 5.2 0 7.61-4 7.61-8.4 0-5.6-2-13.1-6.81-13.1z"/>
		<path class="s26" d="m159.75 73.11c2 0 2.4-1.6 2.4-2.8 0-1.2-1.2-2.4-2.4-2.4-1.6 0-2.4 1.2-2.4 2.4 0 1.2 0.8 2.8 2.4 2.8z"/>
		<path class="s27" d="m131.84 99.01c2-2.4 3.2-2.8 4-2 2.4 3.19 6.78 5.59 11.99 1.2 3.2 2.39 6.75 1.2 7.54-1.6"/>
		<path class="s28" d="m143.42 92.26c0-2.4 3.21-3.2 5.61-3.2 2.8 0 4.8 1.2 4.8 2.8 0 1.6-3.2 4-4.8 4-2 0-5.61-2.4-5.61-3.6z"/>
	</g>
</svg>