<svg version="1.2" xmlns="http://www.w3.org/2000/svg" viewBox="0 0 200 200" width="250" height="250">
	<style>
		.s0 { fill: #00525a } 
		.s1 { fill: #1baf9a } 
		.s2 { fill: #1baf9a;stroke: #00525a;stroke-miterlimit:10;stroke-width: 1.2 } 
		.s3 { fill: #f0edc8 } 
		.s4 { fill: #0e5a62;stroke: #00525a;stroke-linecap: round;stroke-linejoin: round;stroke-width: 2 } 
		.s5 { fill: #d8c8a3 } 
		.s6 { fill: #f0edc8;stroke: #1baf9a;stroke-miterlimit:10;stroke-width: 1.2 } 
		.s7 { fill: none;stroke: #3896d2;stroke-linecap: round;stroke-miterlimit:10;stroke-width: 3 } 
		.s8 { fill: none;stroke: #00525a;stroke-linecap: round;stroke-linejoin: round;stroke-width: 2 } 
		.s9 { fill: #225763;stroke: #00525a;stroke-linecap: round;stroke-linejoin: round;stroke-width: 1.2 } 
	</style>
	<g id="Layer 1">
		<path class="s0" d="m62.47 165.12c-14.35-1.14-26.66-11.29-32.15-25.2-7.1-18.36 1.8-35.11 1.53-46.09-0.27-10.12-4.94-11.99-9.78-18.94-6-8.7-0.56-21.72 12.25-22.71 12.67-0.97 29.61 11.98 28.16 39.7-0.25 4.93-1.26 9.03-0.86 13.54 6.3-10.11 18.1-20.27 18.1-20.27l0.37-0.3c-6.33-4.32-12.98-10.59-11.31-20.82 0.41-2.52 1.51-4.88 3.21-6.8l0.52-9c-11.4-12.62-10-27.49-5.22-38.94 0.9-2.23 2.62-2.43 3.89-1.27 4.37 4.14 6.08 5.72 9.25 8.04 2.88 2.12 6.44 5.62 8.13 7.4 6.63-3.44 14.2-5.12 21.83-5.12 5.78 0 10.69 1.12 14.36 2.44 3.13-4.96 7.18-7.63 10.03-11.43 1.43-2.02 2.91-4.76 4.54-4.85 1.49-0.09 2.71 1.88 4.67 5.72 5.12 10.27 4.22 20.9-1.18 32.7-0.33 0.69 0.9 4.24 2.12 9.8 0.56 1.92 5.3 6.39 3.81 13.57-1.43 7.32-7.43 13.53-11.8 17.67 6.88 0.1 13.97-4.73 17.24-8.77-0.74-3.35-1.47-6.08-0.92-8.45 0.85-3.49 5.12-3.63 7.03-1.11l0.79 0.91c2.06-2.42 3.11-8.38 7.68-8.18 2.83 0.1 3.57 2.57 3.25 4.69 2.41-1.14 5.03-1.04 5.93 1.58 0.74 2.11-0.7 4.23-1.22 5.09 1.43-0.2 3.16 0.1 3.8 2.37 0.85 3.1-2.17 4.82-5.2 6.64-2.36 1.36-4.42 4.7-7.2 5.61-5.08 12.42-15.4 21.63-28.52 27.79-0.22 8.35 2.41 20.62 8.01 33.04 6.15 12.22 6.15 24.07-1.09 32.72 5.6 1.12 9.21 4.12 9.11 9.83-0.05 2.47-1.68 3.43-5.45 4.08-5.24 0.91-16.17-0.15-19.99-0.75-6.1-1.01-7.38-2.37-7.65-7.1-0.16-3.09-1.89-5.21-9.43-7.03-9.19-1.61-22.93 1.69-23.52 8.86-0.32 4.14-1.4 5.16-5.67 6.73-7.69 2.92-12.31 3.58-20.5 2.11-4.31-0.76-5.31-3.53-4.57-6.3 1.33-5.07 5.44-6.59 10.06-7.7-3.92-4.5-6.13-8.44-6.44-15.5zm11.85-41.72c-3.17 3.35-5.38 6.22-6.38 8.64l0.52 3.84-2.67 12.32 3.02 1.52c3.92-8 5.88-14.55 6.3-19.9l0.32-6.42z"/>
		<path class="s1" d="m165.74 82.42c4.62-1.71 5.3-4.59 9.07-6.51 3.08-1.46 3.87-2.73 3.13-3.89-0.9-1.46-3.06-0.4-4.15 0.46-1.04 0.85-2.67 1.86-3.41 0.7-0.59-0.96 0.74-2.47 2.47-3.88 2.21-1.82 3.21-3.08 2.31-4.14-1.23-1.46-4.01 0.76-5.97 3.53-0.74 1.06-2.17 1.26-2.69 0.3-0.74-1.26 0.58-2.87 1.7-4.89 0.95-1.81 1.05-3.73-0.49-3.83-2.11-0.15-3.49 4.84-5.27 7.76-0.9 1.57-1.69 1.16-2.74-0.95-0.9-1.92-3.47-1.57-3.83 0.15-0.56 2.52 1.31 5.19 1.31 8.12-8.19 9.71-16.02 12.78-28.06 12.28l-0.37-0.35c-4.11 10.43-2 22.54 1.66 36.65 4.52 16.85 5.7 30.51-5.7 39.77-8.89 7.61-22.06 6.04-28.7 1.9-11.4-7.32-11.3-19.27-7.08-38.59 3.42-12.52 6.2-23.8 2.28-36.92l-7.49-3.54c-9.8 7.9-21.65 21.31-27.54 41.21-1.05 3.5-5.11 7.44-4.26 12.17l0.74-1.72c-0.51 3.13-0.25 5.7 2.16 7.11l0.37-6.1c1.58-0.3 1.85 1.52 2 3.74 0.16 2.06 1.25 2.47 2.25 1.15 1.28-1.76 1.54-6 2.98-7.06 1.23-0.86 2.23 1.61 2.69 2.47 0.79 1.47 2.42 0.76 2.32-1.06l-2.06-7.22c5.08-7.91 11.02-14.72 19.21-19.3l-4.37 6.66c-2.31 11.33-5.53 20.22-10.2 29.28-7.39 14.31-5.57 25.86 6.9 35.47 1 0.81 0.84 1.46-0.79 1.11-6.05-1.36-10.84-0.2-12.75 4.3-1.05 2.67-0.15 3.38 2.68 3.13 0.36-2.97 2.19-4.79 5.07-5.19-1.1 1.41-1.89 2.72-1.74 4.94 3.32 0.1 3.73-4.44 6.51-4.24-0.95 1.36-1.95 2.22-2.27 3.84 3.62-0.41 7.39-1.72 10.41-3.03 2.01-0.86 2.22-2.02 2.53-5.1 0.64-6.51 10.49-10.49 21.58-10.64 9.8-0.15 16.89 3.54 17.89 8.71 0.69 3.64 0 4.96 3.03 6.02 3.67 1.26 11.86 1.51 17.15 1.51 1.88 0 5.94-0.1 6.3-1.01 0.69-1.92-2.19-5.61-7.73-6.37l-7.89-0.71c11.95-7.5 14.06-16.35 8.12-30.51-6-12.42-9.57-25.22-8.98-39.84l1.1-7.56 1 5.17c11.6-5.17 23-15.75 27.61-25.46z"/>
		<path class="s2" d="m63.11 160.93c-12.4-1.82-23.65-11.02-28.16-23.08-6.3-17 1.84-32.77 1.69-44.06-0.16-7.9-4.53-15.66-8.9-17.93-5.99-3.02-5.63-14.73 1.71-18.42 9.04-4.53 20.24 5.69 23.71 18.67 3.07 11.18 1.59 20.9-4.05 37.49-4.93 14.52-5.3 26.73 3.04 34.63 3.27 3.19 4.9 4.3 11.64 5.92z"/>
		<path class="s3" d="m56.72 152.74c-8.84-1.06-16.58-11.64-18.36-24.61-1.83-13.32 2.74-26.98 1.56-36.7-1-8.31-6.03-14.82-10.7-16.38-6-2.02-6.31-12.76-0.31-16.75 7.34-4.78 16.98 2.48 22.32 13.01 5.44 10.78 4.01 23.64-0.83 38.41-5.39 16.54-5.93 29.2 0.71 36.31 2.06 2.37 3.64 3.73 6.61 4.99 1.1 0.56 1.1 1.92-1 1.72z"/>
		<path class="s4" d="m72.78 45.04c-8.49-10.93-7.54-22.99-2.87-31.2 0.8-1.46 1.85-1.11 3.33-0.1 5.24 3.54 10.48 9.21 13.95 13.3 2.62-1.21 4.83-2.27 7.25-2.27 5.54 2.52 12.58 13.65 15.7 21.11 1.58 4.04 3.21 2.73 4.01-0.66 1.92-7.51 4.13-14.12 3.87-22.17 2.73 0.61 5.35 1.57 7.76 2.88 3.12-5.91 6.64-9.5 11.43-14.91 1.1-1.36 1.94-0.91 2.68 0.2 6.54 8.8 6.23 21.02-0.46 32.77l-2.62 3.74-63.66-0.55z"/>
		<path class="s1" d="m126.63 86.72c-7.29 4.39-12.37 5.71-20.51 4.19-7.69-1.46-12.01-2.17-17.85-4.79l-1.15-0.55c-9.9-5.36-15.14-10.82-14.59-18.72 0.31-3.64 2.08-6.56 3.62-8.13l0.64-10.58c1.63-7.11 6.15-11.1 11.84-11.1 9.35 0 17.49 12.67 21.01 26.73 0.74 3.08 4.31 1.26 6.47 1.26 1.23-13.91 3.91-27.97 13.81-28.27 6.49-0.15 9.96 7.12 10.7 17.95 0.1 1.62 1 1.32 2.33 2.43 2.83 2.37 3.96 6.07 2.96 10.31-1.87 8.2-9.56 13.67-19.28 19.27z"/>
		<path class="s5" d="m120.48 89.95c3.47-1.01 5.24-2.17 7.71-3.23-3.37 7.42-10.31 10.29-17.85 9.99-8.19-0.3-12.51-2.97-19.1-7.11l-0.51-0.46c2.98 0.61 4.61 1.21 7.02 1.36 8.44 1.67 13.33 2.33 22.73-0.55z"/>
		<path class="s6" d="m126.63 86.12c-8.74 4.89-16.48 5.8-26.38 3.02-13.13-3.83-25.27-9.99-26.8-17.89-1.23-6.31 2.69-10.54 5.66-10.54l1.28 0.45c-2.06-8.25-0.29-23.02 10.7-23.02 8.04 0 14.98 12.47 18.65 26.78 0.59 2.42 2.07 1.41 4.49 1.11 2.01-0.3 2.8 0 2.96-2.42 0.54-10.12 1.92-26.52 12.37-26.52 6.05 0 9.27 6.61 9.96 17.69 0.1 1.62 0.26 2.27 1.39 2.37 3.42 0.35 5.19 4.79 4.4 9.03-1.63 8.61-10.47 15.37-18.68 19.94z"/>
		<path class="s0" d="m101.16 62.66c0.26-9.61-3.41-15.53-8.8-15.78-5.74-0.25-7.95 5.42-7.95 9.3 0 5.27 3.62 9.9 9.81 8.74 2.83-0.55 4.41-0.85 6.94-2.26z"/>
		<path class="s3" d="m94.47 56.19c2.04 0 2.59-1.18 2.59-2.58 0-1.54-1.14-2.54-2.42-2.54-1.53 0-2.53 1.06-2.53 2.37-0.05 1.37 0.8 2.75 2.36 2.75z"/>
		<path class="s7" d="m88.18 56.34c-0.46 2.57 0.87 5.87 4.34 6.27"/>
		<path class="s8" d="m102.94 73.79c1.27 2.88 4.25 3.33 6.12 3.13 3.57-0.4 4.72-1.87 5.26-3.68 0.79 2.07 2.42 2.97 4.49 2.82 1.91-0.15 3.24-1.16 4.03-2.97"/>
		<path class="s0" d="m108.51 67.98c0.31-1.97 2.22-2.27 5.94-2.37 3.37-0.1 4.6 1.01 4.5 2.73-0.21 2.07-2.73 3.89-4.5 4.29-2.42 0.61-6.34-2.22-5.94-4.65z"/>
		<path class="s0" d="m122.84 59.06c2.21-2.27 6.28-3.13 12.17-1.61 1.38 0.4 1.75-1.42 0.12-2.17-1.68-0.81-3.51-1.31-6.38-1.36 1.63-1.21 3.16-1.71 5.47-2.01 1.63-0.25 1.48-2.17-0.49-2.02-6.89 0.2-10.61 4.63-11.71 8.12-0.54 1.61-0.18 1.91 0.82 1.05z"/>
		<path class="s9" d="m70.71 14.65c6.25 4.53 9.27 12.09 10.85 19.96 0.31 1.62-0.48 1.77-1.58 1.01-1.09-0.75-2.23-1.91-2.87-1.76-0.95 0.25 0 2.67 0.8 4.49-1.97 3.24-3.06 5.56-3.8 5.86-6.99-8.89-8.67-19.72-3.4-29.56z"/>
		<path class="s9" d="m138.87 11.22c-3.67 3.69-4.67 11-5.13 20.51 2.57 2.88 4.48 5.3 5.81 7.67 5.69-9.1 5.64-20.48-0.68-28.18z"/>
	</g>
</svg>