<svg version="1.2" xmlns="http://www.w3.org/2000/svg" viewBox="0 0 250 250" width="250" height="250">
	<defs>
		<linearGradient id="g1" x2="1" gradientUnits="userSpaceOnUse" gradientTransform="matrix(103.885,0,0,66.864,10.088,200.071)">
			<stop offset="0" stop-color="#19515e"/>
			<stop offset="1" stop-color="#006672"/>
		</linearGradient>
		<linearGradient id="g2" x2="1" gradientUnits="userSpaceOnUse" gradientTransform="matrix(17.05,0,0,25.3,125.951,43.908)">
			<stop offset="0" stop-color="#19515e"/>
			<stop offset="1" stop-color="#006672"/>
		</linearGradient>
		<linearGradient id="g3" x2="1" gradientUnits="userSpaceOnUse" gradientTransform="matrix(16.381,0,0,23.111,176.527,40.82)">
			<stop offset="0" stop-color="#19515e"/>
			<stop offset="1" stop-color="#006672"/>
		</linearGradient>
		<linearGradient id="g4" x2="1" gradientUnits="userSpaceOnUse" gradientTransform="matrix(11.323,0,0,12.073,227.453,47.609)">
			<stop offset="0" stop-color="#2e6ba7"/>
			<stop offset="1" stop-color="#164870"/>
		</linearGradient>
		<linearGradient id="g5" x2="1" gradientUnits="userSpaceOnUse" gradientTransform="matrix(50.845,0,0,98.069,191.266,92.881)">
			<stop offset="0" stop-color="#2e6ba7"/>
			<stop offset="1" stop-color="#164870"/>
		</linearGradient>
		<linearGradient id="g6" x2="1" gradientUnits="userSpaceOnUse" gradientTransform="matrix(18.85,0,0,27.99,195.521,109.704)">
			<stop offset="0" stop-color="#2e6ba7"/>
			<stop offset="1" stop-color="#164870"/>
		</linearGradient>
		<linearGradient id="g7" x2="1" gradientUnits="userSpaceOnUse" gradientTransform="matrix(33.2,0,0,56.659,120.207,162.973)">
			<stop offset="0" stop-color="#006672"/>
			<stop offset="1" stop-color="#1bb19a"/>
		</linearGradient>
	</defs>
	<style>
		.s0 { opacity: .2;fill: #187a6a } 
		.s1 { fill: #0d4e5a;stroke: #0d4e5a;stroke-linecap: round;stroke-linejoin: round;stroke-width: 2.5 } 
		.s2 { fill: url(#g1);stroke: #0d4e5a;stroke-linecap: round;stroke-linejoin: round;stroke-width: 2.5 } 
		.s3 { fill: #1bb19a } 
		.s4 { fill: #1bb19a;stroke: #0d4e5a;stroke-linecap: round;stroke-linejoin: round;stroke-width: 2.5 } 
		.s5 { fill: #159e8f } 
		.s6 { fill: #f0efc5;stroke: #0d4e5a;stroke-linecap: round;stroke-linejoin: round;stroke-width: 2.5 } 
		.s7 { fill: #0d4e5a } 
		.s8 { fill: url(#g2);stroke: #0d4e5a;stroke-linecap: round;stroke-linejoin: round;stroke-width: 2.5 } 
		.s9 { fill: #f0efc5 } 
		.s10 { fill: url(#g3);stroke: #0d4e5a;stroke-linecap: round;stroke-linejoin: round;stroke-width: 2.5 } 
		.s11 { fill: none;stroke: #0d4e5a;stroke-linecap: round;stroke-linejoin: round;stroke-width: 2.5 } 
		.s12 { fill: url(#g4) } 
		.s13 { fill: url(#g5);stroke: #0d4e5a;stroke-linecap: round;stroke-linejoin: round;stroke-width: 2.5 } 
		.s14 { fill: url(#g6);stroke: #0d4e5a;stroke-linecap: round;stroke-linejoin: round;stroke-width: 2.5 } 
		.s15 { fill: none;stroke: #f0efc5;stroke-linecap: round;stroke-linejoin: round;stroke-width: 2.5 } 
		.s16 { fill: #c6d5b8 } 
		.s17 { fill: url(#g7);stroke: #0d4e5a;stroke-linecap: round;stroke-linejoin: round;stroke-width: 2.5 } 
	</style>
	<g id="Layer 1">
		<path class="s0" d="m102.06 227.48c33.63-13.76 62.13-37.54 84.75-73.34 2.12-3.46-3.03-6.08-4.75-2.98-20.64 34.23-45.87 58.55-80 75.88z"/>
		<path class="s0" d="m152.94 209.22c21.88-14.09 40.47-34.14 55.02-61.91 1.8-3.58-3.15-4.8-4.31-1.99-12.9 27.59-27.64 46.99-50.86 63.29z"/>
		<path class="s0" d="m18.74 177.86c27.17-21.9 41.15-55.58 39.04-101.94-0.33-4.88-7.19-4.73-6.55 0.9 4.6 37.92-4.08 74.35-32.49 100.61z"/>
		<path class="s0" d="m22.42 154.38c11.37-16.35 17.46-36.19 17.89-59.27 0.15-3.54-5.33-3.39-4.92 0.15 1.62 19.85-1.91 39.77-12.97 58.69z"/>
		<path class="s1" d="m62.91 156.01c7.28-27.27 10.31-52.8 3.18-114.23l-3.08-1.87-0.89-9.7 5.79-6.15 5.92 1.88 4.9 1.87 4.9-0.45 0.74 8.05 14.54 10.29 19.15 9.69 9.35 3.44 2.58-6-4.75-13.07 2.93-10.59 8.32 2.63 9.65 7.22c9.05-1.96 18.87-1.93 27.77 0.89l15.24-9.7 2.12 1.59 0.45 8.11-4.2 12.17-1.67 3.59 2.91 4.45 0.93 5.64c10.22-2.68 20.28-6.68 25.52-11.41l2.92-7.22 7.02-2.63 5.74-8.54 7.48-9.7 4.2 1.87-1.29 10.59 1.29 8.11-0.84 9.69-10.49 26.72-2.12-3.64 5.74-12.55-4.2-1.29-3.37-5.64-7.02 1.3-12.19 16.29-1.72 4.98-55.52 80.54-5.74 7.22-7.48 4.97 0.84 10.59-3.77 6.21h-5.73l-1.29-6.21-1.29-11.89 1.29-6.21-2.12-7.22-5.34-5.79-3.78-1.29c-11.36 34.25-33.51 67.56-75.82 69.89-17.4 0-34.39-8.05-34.61-21.94 0.22-8.95 8.12-14.34 18.73-11.91 28.19 8.59 53.42-2.74 69.93-32.59l1.29-2.63-22.54 7.22-10.5 13.77-6.57-0.9-3.78-5.42 0.84-3.08z"/>
		<path class="s2" d="m19.95 192.22c-7.28 0-9.86 4.98-9.86 9.34 0 8.11 10.07 16.86 30.1 17.56 33.95 0 62.63-28.2 73.78-66.41-5.55-0.99-10.78-0.2-13.11 0.9-13.9 27.77-33.05 41.14-51.75 41.14-11.36 0-13.48 0.38-29.16-2.53z"/>
		<path class="s3" d="m31.72 196.42c11.1 3.08 19.62 2.78 30.56-1.29 13.48-5.28 28.23-20.31 33.97-28.41l3.77 0.5c-6.41 21.89-31.21 43.49-53.34 47.68-9.35 0.85-10.19-14.74-4.02-15.7-1.57-0.41-5.65-1.46-10.94-2.78z"/>
		<path class="s4" d="m68.97 39.41c7.07 3.68 11.86 18.21 33.14 38.8 6.31 6.05 14.21 10.05 13.9 20-0.31 9.96-9.87 23.28-25.11 33.87-10.71 7.08-18.82 13.85-21.62 24.44l-5.44 0.39c9.19-32.16 10.41-59.68 2.51-117z"/>
		<path class="s5" d="m71.29 44.65c6.62 12.27 14.72 24.54 24.81 37.54 7.69 9.96 8.22 19.92 1.31 31.94-3.67 6.28-7.92 10.62-12.88 14.61-5.39 4-9.82 8.54-13.5 13.97 6.57-24.42 8.37-46.03 0.26-98.06z"/>
		<path class="s6" d="m146.14 39.91c10.76-2.9 23.97-2.6 29.89 2.42 7.28 5.43 12.62 10.81 12.62 18.91v4.98l25.27-8.55 4.69-6.66 5.49-0.8 2.32 2.52-8.29 14.32-16.99 20.31-33.03 22.8-14.7 21.52 0.84 21.93-7.02 13.01-12.19 8.1 2.12 10.1-2.12 7.22-5.74 0.45-0.84-9.1-2.13-10.12 2.13-4.96c0-8.1-6.37-15.2-14.27-16.05l-13.91-2.63 7.85-17.55 10.9-17.55-1.72-23.33-10.9-12.54-26.12-32.41-0.45-11.49 2.52 0.85c10.71 10.09 26.75 18.64 46.05 24.12l1.73-4.46c-8.46-6.25-6.28-21.57-2.52-26.55 5.34 0 14.24 6.74 18.52 11.19z"/>
		<path class="s7" d="m146.14 39.91c4.9-1.59 16.67-2.5 26.79 0.45 4.29 1.27 13.75 7.4 15.31 14.86-2.13 1.15-4.1 3.61-4.1 7.91l2.67 3.09 1.84 0.4c0.56 4.19-0.87 11.39-8.5 18.51-5.54 4.83-13.7 4.63-21.03 4.63 10.06-1.45 21.84-4.08 26.73-11.3 2.13-3.14 1.67-7.75 0-7.75-2.97 0-3.53-4.49-2.59-10.59 0.72-4.8-5.42-13.87-15.54-18.84-5.83-3.01-14.62-3.01-21.58-1.37z"/>
		<path id="Shape 1" fill-rule="evenodd" class="s7" d="m186.33 54.45l2.67 12.71-5.76-2.08z"/>
		<path class="s8" d="m128.41 31.25c5.34 1.7 11.51 8.66 13.63 12.8 1.87 3.79 1.67 6.16 0 6.16-1.67 0-2.93-4.51-5.19-3.96-2.16 0.56-0.36 5.38 0.31 7.59 0.57 2.18-2.12 3.83-3.79 2.68-8.46-4.44-8.74-19.21-4.96-25.27z"/>
		<path class="s5" d="m155.8 41.23c9.92 1.71 19.43 11.4 19.43 22 0 2.53 2.52 1.62 2.93-1.41 0.89-5.7 0.36-10.81-2.13-16.97-4.9-4.84-13.8-5.74-20.23-3.62z"/>
		<path class="s7" d="m153.73 55.22c5.09-2.69 11.9 0 13.58 6.8 0.84 3.59 1.68 8.69-0.86 8.69-2.53 0-6.3 1.61-8.42 1.86-7.02 0.81-9.29-5.5-9.98-7.36-1.67-4.59-5.04-5.09-7.17-3.79-2.97 1.71-4.64 3.12-5.48 4.34-0.2-3.84 1.71-6.33 3.71-7.33 3.58-1.81 8.02 0 14.62-3.21z"/>
		<path class="s9" d="m158.82 64.14c2.8 0 3.12-2.02 3.12-3.62 0-1.89-1.79-2.9-3.12-2.9-1.73 0-2.76 1.46-2.76 2.9 0 1.75 1.03 3.62 2.76 3.62z"/>
		<path class="s9" d="m184.55 63.23c1.76 0 2.26-1.21 2.26-2.31 0-1.29-0.96-2.09-1.9-2.09-1.18 0-1.84 1-1.84 1.89 0 1.2 0.66 2.51 1.48 2.51z"/>
		<path class="s7" d="m134.69 66.22c-0.89 4.49 0.35 10.85 4.13 15.82l-4.65-4.97-0.8-8.75z"/>
		<path class="s7" d="m167.72 77.07c0.43 2.98 2.39 4.12 5.36 4.12 2.98 0 6.35-2.18 7.18-4.97 1.05-3.6-2.1-4.2-4.23-3.7-2.12 0.5-2.12 3.7 0 5.39 1.3 1 0.44 2.14-1.68 2.14-2.13 0-4.91-1.14-6.63-2.98z"/>
		<path class="s4" d="m188.65 66.22c10.75-2.33 20.87-6.54 27.44-11l2.52-6.76 4.45-2.13 3.36 1.28-1.27 4.47-3.78 4.44c-9.35 8.1-19.41 15.32-32.72 18.35z"/>
		<path class="s10" d="m180.15 41.23c3.94-4.01 7.47-6.97 10.25-9.43 2.12-1.96 2.96 2.51 2.12 9.43-0.8 5.9-3.87 11.6-6 13.12-1.67-4.44-4.65-8.3-9.99-11.46z"/>
		<path class="s6" d="m232.74 35.61l4.75-8.55c1.29-1.9 5.94-0.45 5.53 3.15l-3.37 8.01 1.67 3.01-2.13 4.97-10.9-3.06 1.29-4.92z"/>
		<path class="s11" d="m236.11 30.64l2.12 1.31"/>
		<path class="s12" d="m229.07 43.14l9.71 3.06-2.57 9.02-6.18-3.14-2.58-5.88z"/>
		<path class="s13" d="m238.37 45.7l2.58 1.86c1.67 1.86 1.26 6.69-1.3 11.27l-16.59 38.18-18.29 29.3-13.5 15.9 2.12-21.9 19.69-42.1 13.04-30.2c1.33-3.16 7.36-4.87 12.25-2.31z"/>
		<path class="s14" d="m206.89 95.71l7.48 3.8-9.6 24.19-9.25-3.49z"/>
		<path class="s6" d="m194.68 122.12l8.04 3.09-8.9 11.59z"/>
		<path class="s15" d="m212.25 79.6c2.97-1.39 7.87 0 10.4 4.14"/>
		<path class="s11" d="m230.89 58.83c1.67-2.81 4.83-3.61 6.6-2.81 1.29 0.8 0 4.1-2.12 5.4-1.73 1.06-3.25 1.16-3.91 0.6-1.14-1.1 0.66-0.9 3.4-0.6 2.22 0.25 2.63 2.72 0.86 3.93-1.78 1.27-5.09 1.27-5.69-1.21-0.65-2.72 1.68-4.02 4.83-4.02"/>
		<path class="s7" d="m146.98 41.23c0.25 4.47 2.37 8.98 6.15 10.29-4.7 0-7.92-3.91-8.66-8.38z"/>
		<path class="s4" d="m81.1 27.06c-2.07 1.46-2.99 4.89-3.79 4.19-2.13-3.14-4.09-8.14-8.99-7.74-2.69 0.25-3.67 3.55-1.55 4.3-3.42 0-6.35 1.6-6.35 3.99 0 1.35 1.3 2.51 1.7 2.51-2.07 1.5-2.07 5.6 2.54 5.6 5.39 0 10.19 5.79 12.71 7.22l1.66-4.8c-2.12-1.1-3.39-5.02-1.27-8.02 1.05-1.66 2.53-5.14 5.05-6.5 1.67-0.9 0.82-2.2-1.71-0.75z"/>
		<path class="s11" d="m62.91 32.2c2.12-0.95 5.9-0.95 8.02 0.9"/>
		<path class="s4" d="m182.81 100.61c11.77-7.56 24.41-19.72 30.27-25.29-10.71 15.43-31.16 39.72-55.56 75.62 3.52-13.43 6-29.82 12.59-39.93 2.37-3.39 7.64-7.09 12.7-10.4z"/>
		<path class="s16" d="m139.63 84.63c6.36 3.58 14.82 4.88 22.72 3.12 5.58-1.26 12.42-0.5 19.22-7.7 2.57-2.88 4.69-2.98 5.95-3.83-2.13 5.82-12.29 14.73-16.48 20.79-5.88 0.8-15.39 5.66-19.98 12.8-2.12-10.7-5.09-14.5-13.05-22.61-2.13-2.12-2.97-6.01-2.56-7.6 0.84 1.29 1.66 3.54 4.18 5.03z"/>
		<path class="s16" d="m84.43 42.33c13.65 11.51 31.95 21.21 42.8 22.27 2.12 0 2.96-4.48 3.81-5.77l-2.63 0.9c-12.9-2.61-30.3-12.12-40.22-18.91z"/>
		<path class="s3" d="m82.36 43.14c12.35 12.08 31.06 24.63 45.26 31.73 3.02 1.35 5.09 2.2 5.75 1.35-1.05 2.39-2.33 0.85-6.15-0.5-12.5-4.63-30.61-15.6-46.12-31.67-1.72-1.82-0.81-2.82 1.26-0.91z"/>
		<path class="s3" d="m102.32 117.14c-6.58 8.7-13.1 11.95-19.96 17.6-7.54 6.21-12.28 14.07-12.28 16.2 0 3.17 4.23 2.67 7.23 1.77 15.14-3.9 21.5-10.5 29.15-24.82z"/>
		<path class="s17" d="m139.63 143.21c-6.26 4.97-13.27 9.05-19.42 9.05 6.17 2.55 10.43 7.95 11.27 14.76 0.41 4.24-3.02 5.54-3.43 6.6-0.83 1.8 2.54 7.56 2.54 13.29v3.81c2.78 0 4.04-2.91 3.58-6.5 2.12 1.79 2.12 4.7 1.28 6.5 2.97-3.06 2.51-8.19-1.73-15.7 5.49-2.61 12.2-4.21 14.77-11.01 3.37-8.6 4.2-14.38 4.2-28.72-2.57 0-7.17 3.22-13.06 7.92z"/>
		<path class="s5" d="m63.79 157.36c-4.24 1.35-11.23 8.06-11.23 11.74 0 3.01 2.97 5.02 5.1 5.02 4 0 4.46-1.61 7.83-7.1 2.52-4.16 4.59-5.37 9.24-6.81 6.52-2.1 15.21-4.55 20.35-6.6l2.12-3.48c-5.14 2.13-14.69 5.08-21.16 7.23-4.7 1.55-5.96 4.69-8.48 7.86-2.53 3.49-3.72 7.29-7.14 8.05-1.67 0.35-2.81-1.61-1.67-4.96"/>
		<path class="s11" d="m63.79 157.36c-4.24 1.35-11.23 8.06-11.23 11.74 0 3.01 2.97 5.02 5.1 5.02 4 0 4.46-1.61 7.83-7.1 2.52-4.16 4.59-5.37 9.24-6.81 6.52-2.1 15.21-4.55 20.35-6.6l2.12-3.48c-5.14 2.13-14.69 5.08-21.16 7.23-4.7 1.55-5.96 4.69-8.48 7.86-2.53 3.49-3.72 7.29-7.14 8.05-1.67 0.35-2.81-1.61-1.67-4.96"/>
		<path class="s16" d="m119.03 114.53c4.69-9.6 8.59-24.48-4.31-34.93-8-5.78-13.68-7.28-19.6-15.06 5.92 8.48 13.2 13.67 17.9 20.09 5.92 8.11 4.69 19.05 0 27.15z"/>
		<path class="s16" d="m112.26 125.21c-3.78 8.1 0.76 18.4 12.53 18.4 13.48 0 28.22-11.93 37.56-34.3-4.44 7.71-6.55 11.81-9.07 14.94-6.68 8.64-15.37 17.96-29.83 18.96-9.97 0.4-14.97-8.47-11.19-18z"/>
		<path class="s9" d="m150.57 137.31l2.12-1.26c0 10.05-2.57 24.16-7.37 29.97 2.73-8.66 5.25-16.39 5.25-28.71z"/>
	</g>
</svg>