<?xml version="1.0" encoding="utf-8"?>
<svg xmlns="http://www.w3.org/2000/svg" width="192" height="192" fill="none" viewBox="0 0 192 192">
  <path d="m143.7 187.4c-0.6-7.21-3.55-11.76-8.76-13.25 3.71-6.01 6.23-14.01 0.4-27.26-4.38-10.03-5.99-16.83-5.99-27.6 3.56 1.65 6.99 2.56 10.77 2.27 6.7-0.52 11.17-3.84 14.5-7.47l-2.51-7.48-2.37-4.14c-3.1 1.44-7.24 1.2-11.6-3.68-3.96-4.42-6.26-9.94-10.03-14.5 3.31 1.06 7.11 1.68 10.98 1.43 10.75-0.69 16.66-4.43 24.19-12.03 11.36-11.47 12.01-29.95 2.89-42.95-8.35-11.94-20.77-15.59-34.2-13.63-1.63-6.37-4.13-10.17-7.43-12.11-1.09-0.64-2.38-0.22-2.7 1-1.6 6.26-5.43 7.7-8.64 13.36-9.29-3.91-20.35-4.05-28.45-0.13-4-5.97-7.43-6.81-8.2-13.93-0.15-1.11-1.51-1.24-2.19-0.28-9.42 11.35-10.12 19.75-4.49 35.07l-2.09 9.51c-2.97 4.1-4.33 11.42-1.82 16.45 2.08 4.32 6.96 7.3 10.49 9.53-9.4 5.58-16.41 16.65-18.3 28.38-1.13 7.45 0.95 11.83 7.76 14.88-1.46 7.92-2.06 14.85-4.87 22.25-6.56-2.34-9-11.47-6.83-23.98 1.84-10.22 5.41-21.02 4.61-30.78-1.5-18.6-12.88-39.03-27.61-39.13-10.34-0.08-14.26 8.8-13.43 15.73 0.87 7.64 6.46 9.92 9.61 15.36 3.43 5.97 3.25 11.63 0.95 23.6-3.09 15.83-3.52 26.25 3.85 38.46 6.28 10.35 13.85 16.25 24.68 17.18-1.02 4.56-0.42 9.81 2.32 13.85-0.95-1.28-1.87-4.49-1.44-7.19 0.47 4.27 2 7.91 5.2 10.2-6.98 0.64-9.11 5.57-9.84 12.5-0.12 0.76 0.33 0.63 0.73 0.63h22.98c3.43 0 4.16-1.08 4.68-4.63 1.36-8.06 9.61-13.4 18.65-12.9 6.99 0.42 14.1 5.91 15.51 12.71 0.65 3.37 2.06 4.7 5.08 4.7h22.96z" fill="#00525A"/>
  <path d="m114.3 23.84c2.15-6.03 5.97-8.93 9.78-13.13 1.99 3.12 3.13 6.38 3.63 9.33l-8.81 5.24-4.6-1.44z" fill="url(#paint0_linear_104_354)"/>
  <path d="m73.71 10.22c4 4.69 7.76 8.04 9.47 13.22 10.14-5.33 20.8-4.52 31.11 0.4 2.52-5.53 5.54-8.73 9.33-12.93-2.34 5.03-3.41 9.91-3.56 14.32l-3.43 2.6-3.31-1.74c-10.36 5.19-20.4 5.64-31.13-1.48-2.22-5.19-5.05-9.7-8.48-14.39z" fill="#009688"/>
  <path d="m73.71 10.22c2.66 6.67 3.73 13.04 4.05 18.85l-6.44 7.65c-3.61-10.65-2.86-18.51 2.39-26.5z" fill="url(#paint1_linear_104_354)"/>
  <path d="m31.51 51.63c11.66-0.91 21.5 14.64 22.72 29.28 1.51 16.8-7.12 33.25-6.82 46.5 0.2 8.2 4.7 17.77 13.33 19l-2.83 7.4c-9.78-1.39-17.8-9.25-22.85-19.38-5.64-11.2-3.55-22.67-0.45-38.42 2.51-11.78-0.82-22.79-8.39-27.82-6.06-4.74-3.54-15.85 5.29-16.56z" fill="#1FB09E"/>
  <path d="m32.38 52.04c9.6-0.61 17.72 14.94 18.34 26.77 1.19 16.39-5.43 29.9-6 46.25-0.4 11.06 4.33 21.53 14.22 23.07l-1.22 1.01c-11.61-0.81-19.71-12.92-22.22-25-2.27-10.65 1.27-23.01 2.11-33.91 0.78-9.62-3.7-18.6-10.19-22.29-6.23-3.53-5.16-15.2 4.96-15.9z" fill="#F0F0CC"/>
  <path d="m73.71 49.77c1.6-6.36 2.1-16.43 7.26-16.43 8.94 0 13.67 13.51 15.08 29.61l5.66-0.56c0.4-6.37 1.2-12.18 3.32-17.67l10.36 29.52-5.32 4.67-1.55 0.31-1.41-1.21c-3.2-1.16-7.19 0.7-11.66 3.1-1.51-1.89-3.18-2.8-6.24-2.35l-1.87-0.25c-8.42-2.54-17.23-8.8-19.12-13.73-1.71-4.93 0.18-10.67 5.49-12.87v-2.14z" fill="#F0F0CC"/>
  <path d="m83.88 41.54c5.93 0 6.53 6.78 5.93 13.14-2.62 2.24-7.4 2.85-10.7 0.61-5.32-3.48-3.3-13.75 4.77-13.75z" fill="#00525A"/>
  <path d="m96.72 62.75c2.83-0.71 6.77-0.1 6.84 1.76s-2.25 3.2-4.54 3.91c-1.89-0.71-4.48-2.3-4.6-3.69-0.13-1.38 0.82-1.68 2.3-1.98z" fill="#00525A"/>
  <path d="m95.72 75.2c-1.1-0.3-0.7-1.99 0.93-3.1 2.12-1.44 3.6-0.73 5.56 0.61 1.2 0.81 0.95 2.3-0.15 2.3-1.65 0-2.44-1.9-3.92-1.29-1.07 0.5-1.42 1.66-2.42 1.48z" fill="#00525A"/>
  <path d="m87.24 86.9c-5.49-1.11-10.05-3.71-12.41-6.98-7.72 6.12-12.9 17.79-11.11 26.09 2.19 9.97 14.99 7.98 24-2.59 2.09-2.59 3.09-4.78 4.98-5.69 4.19-1.11 6.92-1.92 8.21-4.61 0.7 0.3 1.2 0.81 1.2-1.06 0-2.54-0.8-3.04-2.09-3.85 1.69-1.11 3.89-0.4 3.79 1.77 0.25 3.44 0.1 6.49-6.76 9.13-1.78 0.61-8.94 13.07-18.18 18.31-2.83 15.83-4.16 30.47 3.96 38.33 4.99 4.26 11.46 7.46 16.89 7.46 9.29 0 19.19 5.14 21.56 15.01 0 2.7 0.4 4.03 3.11 4.03h14.53c-1-3.64-3.71-4.24-11.7-4.54-1.1 0-1-1.31 0.1-2.12 6.76-7.85 9.47-16.83 5-28.35-5-11.22-6.69-19.93-6.09-27.23l-3.81-25.12 0.8-0.5c4.1 10.96 9.86 18.36 18.9 18.06 3.12-0.36 5.09-2.27 5.59-4.36l-1.3-2.08 0.4-4.1 1.9-1.79 3.91 0.81 1.51 2.29-0.4 3.69-1 1.21c0.4 1.89 2.29 4.89 5.62 5.79 3.12 0.81 7.49-0.9 10.22-4.44 2.15-4.12-0.95-12.85-4.84-15.64-1.64-0.81-3.29-0.81-4.88-0.51l-1.51-4.71-3.02-2.59-2.83 0.4-4.38 3.35-1 3.35 0.8 3.05-2.92 4.88c-3.23 0.3-6.35-2.64-9.08-6.77-4.5-6.82-8.79-11.47-12.98-14.36-5.22 5.24-9.51 7.54-14.82 9.1-0.15 5.97-2.48 9.69-9.34 12.64-4.9 7.15-10.33 14.23-16.39 19.26-3.54 14.8-3.47 29.89 6.34 37.79-6.7-2.8-12.61-10.7-9.88-30.59l1.2-10.38c8.1-3.38 14.16-12.7 16.98-16.91 6.14-2.24 10.31-4.82 10.51-11.81 0.6-2.85 3.93-6 1.1-9-2.52-2.24-8.96 0.66-12.96 2.79-1.65-2.33-3.26-3.72-5.56-3.11-0.9 1.21-1.5 4.01-1.87 7.2z" fill="#17AE99"/>
  <path d="m87.01 91.1-16.4 9.98 4.87-3.65 2.73-5.92 0.4 4.76 8.4-5.17z" fill="#00525A"/>
  <path d="m138.8 17.81c16.9 0 33.2 14.2 33.2 33.07 0 17.87-14.38 32.84-33.2 32.84-17.49 0-34.11-14.21-34.11-32.09 0-18.87 14.75-33.82 34.11-33.82z" fill="#00525A"/>
  <path d="m138.5 19.99c15.45 0 30.4 12.72 30.4 30.49 0 16.45-13.95 30.65-30.4 30.65s-30.4-13.19-30.4-29.65c0-17.29 13.68-31.49 30.4-31.49z" fill="url(#paint2_linear_104_354)"/>
  <path d="m138.3 22.71c14.46 0 27.49 12.03 27.49 27.36 0 14.54-12.43 27.74-27.49 27.74-14.46 0-27.49-12.49-27.49-27.03 0-15.33 12.42-28.07 27.49-28.07z" fill="url(#paint3_linear_104_354)"/>
  <path d="m138.3 27.13c12.04 0 23.97 10.8 23.97 24.35 0 12.63-11.23 23.69-23.97 23.69-12.04 0-23.98-11.21-23.98-24.24 0-13.3 11.24-23.8 23.98-23.8z" fill="#F0F0CC"/>
  <path d="m143 31.4c3.92-0.5 6.92 0.71 7.62 3.96 0.6 2.95-1.5 4.99-3.92 4.99-3.02 0-5.53-2.24-5.53-4.94 0-1.69 0.7-3.1 1.83-4.01z" fill="#F0F0CC"/>
  <path d="m150.3 31.85c2.92 1.87 6.15 4.77 6.15 7.87v7.5c3.02 3.05 5.48 6.69 5.23 10.18l-2.93 7.71c-1-6.9-4.02-11.25-8.92-12.42l-1.89-19.07 2.36-1.77z" style="fill: rgb(2, 98, 107);"/>
  <path d="m132.4 35.2c7.76-0.66 12.23 6.74 12.23 14.14 0 7.86-7.29 12.9-13.95 12.4-3.34-0.25-6.87-1.06-9.95-2.83-2.1-7.9-0.38-22.7 11.67-23.71z" style="fill: rgb(0, 103, 112);"/>
  <path d="m135.5 39.92c3.11 0 4.11 2.29 4.11 4.42 0 2.44-2.1 4.23-4.11 4.23-2.53 0-4.33-2.04-4.33-4.08 0-2.44 1.8-4.57 4.33-4.57z" fill="#F0F0CC"/>
  <path d="m145.1 84.43 2.51-1.31 4-1.01 2.84 1.31 1.72 5.5-1.72 1.21-3.99 0.5-3.2-1.01-2.16-5.19z" fill="#00525A"/>
  <path d="m147.8 85.29 3.02-1.01 1.51 4.33-2.93 1.01-1.6-4.33z" fill="#F0F0CC"/>
  <path d="m148.1 91.61 6.66-1.54 12.12 33.11c1.31 3.54-2.78 6.44-6.22 4.93-1.79-0.81-2.49-2.2-3.28-5.49l-10.3-28.49 1.02-2.52z" fill="url(#paint5_linear_104_354)" stroke="#00525A" stroke-miterlimit="10" stroke-width="3.5"/>
  <path d="m162.9 113.1 2.53 0.1 2.21 9.72c0.5 2.04-2.43 2.39-2.93 0.53l-3.02-9.57 1.21-0.78z" fill="#99D5CA"/>
  <path d="m156.7 102.1c1.41-2.34 3.51-4.03 6.44-3.63" stroke="#00525A" stroke-linecap="round" stroke-miterlimit="10" stroke-width="2"/>
  <path d="m157.4 105.2c2.09-0.1 4.41-0.3 6.4-1.42" stroke="#00525A" stroke-linecap="round" stroke-miterlimit="10" stroke-width="2"/>
  <path d="m147.7 101.9c0.7-2.24 5.69-1.79 5.92 1.82 0.2 3.05-3.92 2.9-4.92 1.52" fill="#17AE99"/>
  <path d="m85.38 45.12c2.36 0 2.51 1.89 2.26 3-0.4 1.44-1.4 1.54-2.26 1.54-1.6 0-2.3-1.21-2.3-2.22 0-1.26 0.85-2.32 2.3-2.32z" fill="#F0F0CC"/>
  <defs>
    <linearGradient id="paint0_linear_104_354" x1="121" x2="121" y1="10.71" y2="25.28" gradientUnits="userSpaceOnUse">
      <stop stop-color="#1FB09E" offset="0"/>
      <stop stop-color="#2E6891" offset="1"/>
    </linearGradient>
    <linearGradient id="paint1_linear_104_354" x1="73.6" x2="73.6" y1="10.22" y2="36.72" gradientUnits="userSpaceOnUse">
      <stop stop-color="#1FB09E" offset="0"/>
      <stop stop-color="#2E6891" offset="1"/>
    </linearGradient>
    <linearGradient id="paint2_linear_104_354" x1="138.5" x2="138.5" y1="19.99" y2="81.13" gradientUnits="userSpaceOnUse">
      <stop stop-color="#F0F0CC" offset="0"/>
      <stop stop-color="#2E8682" offset="1"/>
    </linearGradient>
    <linearGradient id="paint3_linear_104_354" x1="138.5" x2="138.5" y1="22.71" y2="77.81" gradientUnits="userSpaceOnUse">
      <stop stop-color="#669996" offset="0"/>
      <stop stop-color="#9cc" offset="1"/>
    </linearGradient>
    <linearGradient id="paint5_linear_104_354" x1="157" x2="157" y1="90.07" y2="128.6" gradientUnits="userSpaceOnUse">
      <stop stop-color="#216DB1" offset="0"/>
      <stop stop-color="#4DBEE2" offset="1"/>
    </linearGradient>
  </defs>
</svg>